<svg width="16" height="16" viewBox="0 0 16 16" fill="none" xmlns="http://www.w3.org/2000/svg">
<mask id="mask0" mask-type="alpha" maskUnits="userSpaceOnUse" x="0" y="0" width="16" height="16">
<path fill-rule="evenodd" clip-rule="evenodd" d="M13.9998 0.666668H4.6665C3.93317 0.666668 3.33317 1.26667 3.33317 2V11.3333C3.33317 12.0667 3.93317 12.6667 4.6665 12.6667H13.9998C14.7332 12.6667 15.3332 12.0667 15.3332 11.3333V2C15.3332 1.26667 14.7332 0.666668 13.9998 0.666668ZM1.33317 3.33333C0.966504 3.33333 0.666504 3.63333 0.666504 4V14C0.666504 14.7333 1.2665 15.3333 1.99984 15.3333H11.9998C12.3665 15.3333 12.6665 15.0333 12.6665 14.6667C12.6665 14.3 12.3665 14 11.9998 14H2.6665C2.29984 14 1.99984 13.7 1.99984 13.3333V4C1.99984 3.63333 1.69984 3.33333 1.33317 3.33333ZM5.33317 11.3333H13.3332C13.6998 11.3333 13.9998 11.0333 13.9998 10.6667V2.66667C13.9998 2.3 13.6998 2 13.3332 2H5.33317C4.9665 2 4.6665 2.3 4.6665 2.66667V10.6667C4.6665 11.0333 4.9665 11.3333 5.33317 11.3333Z" fill="black"/>
</mask>
<g mask="url(#mask0)">
<rect width="16" height="16" fill="#0E436E"/>
</g>
</svg>
