<svg width="34" height="34" viewBox="0 0 34 34" fill="none" xmlns="http://www.w3.org/2000/svg">
<path fill-rule="evenodd" clip-rule="evenodd" d="M14.9402 3.45363C15.4659 4.03722 16.2145 4.37041 17 4.37041C17.7855 4.37041 18.5341 4.03722 19.0598 3.45363L20.4 1.98313C21.187 1.11208 22.437 0.830474 23.5216 1.27987C24.6061 1.72927 25.2905 2.81245 25.2308 3.98488L25.1302 5.96822C25.0909 6.7506 25.3842 7.51314 25.9378 8.06748C26.4913 8.62181 27.2534 8.91625 28.0358 8.87805L30.0192 8.77747C31.1908 8.7197 32.2722 9.40484 32.7205 10.4889C33.1687 11.5729 32.887 12.8217 32.0167 13.6083L30.5405 14.94C29.9577 15.4664 29.625 16.2151 29.625 17.0005C29.625 17.7859 29.9577 18.5346 30.5405 19.061L32.0167 20.3927C32.8877 21.1798 33.1693 22.4297 32.7199 23.5143C32.2705 24.5988 31.1874 25.2833 30.0149 25.2235L28.0316 25.123C27.2474 25.0826 26.4829 25.3765 25.9277 25.9317C25.3725 26.487 25.0786 27.2515 25.1189 28.0356L25.2195 30.019C25.2715 31.1852 24.588 32.2593 23.5096 32.7063C22.4311 33.1532 21.1883 32.8775 20.4 32.0165L19.0669 30.5417C18.5407 29.9589 17.7923 29.6263 17.0071 29.6263C16.2219 29.6263 15.4735 29.9589 14.9472 30.5417L13.6085 32.0165C12.8214 32.8816 11.5764 33.1605 10.4954 32.7136C9.41452 32.2668 8.72978 31.1902 8.78333 30.0218L8.88533 28.0385C8.92567 27.2543 8.63178 26.4898 8.07656 25.9346C7.52134 25.3794 6.75683 25.0855 5.97267 25.1258L3.98933 25.2264C2.81737 25.2876 1.73373 24.6046 1.28333 23.5209C0.832936 22.4372 1.11326 21.1873 1.98333 20.3998L3.45808 19.0681C4.04093 18.5417 4.37356 17.793 4.37356 17.0076C4.37356 16.2222 4.04093 15.4735 3.45808 14.947L1.98333 13.6083C1.11617 12.8217 0.83627 11.5753 1.28381 10.4935C1.73136 9.41161 2.80998 8.72724 3.97942 8.78313L5.96275 8.88372C6.74842 8.92502 7.51468 8.63075 8.07073 8.07415C8.62679 7.51756 8.92032 6.75102 8.87825 5.96538L8.78333 3.98063C8.72849 2.8117 9.41278 1.73397 10.494 1.28636C11.5752 0.838759 12.8211 1.11747 13.6085 1.98313L14.9402 3.45363Z" stroke="url(#paint0_linear)" stroke-width="1.5" stroke-linecap="round" stroke-linejoin="round"/>
<path fill-rule="evenodd" clip-rule="evenodd" d="M17 23.377C20.5208 23.377 23.375 20.5228 23.375 17.002C23.375 13.4811 20.5208 10.627 17 10.627C13.4792 10.627 10.625 13.4811 10.625 17.002C10.625 20.5228 13.4792 23.377 17 23.377Z" stroke="url(#paint1_linear)" stroke-width="1.5" stroke-linecap="round" stroke-linejoin="round"/>
<defs>
<linearGradient id="paint0_linear" x1="9.43422" y1="33.0928" x2="40.2291" y2="22.7072" gradientUnits="userSpaceOnUse">
<stop stop-color="#44234A"/>
<stop offset="1" stop-color="#7C4187"/>
</linearGradient>
<linearGradient id="paint1_linear" x1="13.9719" y1="23.4444" x2="26.2958" y2="19.2888" gradientUnits="userSpaceOnUse">
<stop stop-color="#44234A"/>
<stop offset="1" stop-color="#7C4187"/>
</linearGradient>
</defs>
</svg>
