<svg width="65" height="65" viewBox="0 0 65 65" fill="none" xmlns="http://www.w3.org/2000/svg">
<path opacity="0.7" d="M63.8681 32.7653C63.6745 50.3702 49.3628 64.6419 31.902 64.6419C14.4413 64.6419 0.443539 50.3702 0.637178 32.7653C0.830817 15.1603 15.1425 0.888672 32.6033 0.888672C50.064 0.888672 64.0618 15.1603 63.8681 32.7653ZM6.96027 32.7653C6.80536 46.8493 18.0036 58.2666 31.9722 58.2666C45.9408 58.2666 57.3901 46.8493 57.545 32.7653C57.7 18.6813 46.5018 7.26399 32.5332 7.26399C18.5646 7.26399 7.11518 18.6813 6.96027 32.7653Z" fill="#EFEFFF"/>
<path d="M28.15 31.8171C28.0373 31.9287 27.9479 32.0613 27.8869 32.2075C27.8259 32.3537 27.7944 32.5105 27.7944 32.6689C27.7944 32.8273 27.8259 32.9841 27.8869 33.1303C27.9479 33.2765 28.0373 33.4092 28.15 33.5207C28.3752 33.7442 28.6799 33.8696 28.9975 33.8696C29.3151 33.8696 29.6198 33.7442 29.845 33.5207C29.9577 33.4092 30.0471 33.2765 30.1081 33.1303C30.1691 32.9841 30.2006 32.8273 30.2006 32.6689C30.2006 32.5105 30.1691 32.3537 30.1081 32.2075C30.0471 32.0613 29.9577 31.9287 29.845 31.8171C29.6198 31.5937 29.3151 31.4683 28.9975 31.4683C28.6799 31.4683 28.3752 31.5937 28.15 31.8171ZM31.1192 34.7924C30.8953 35.0172 30.7697 35.3213 30.7697 35.6382C30.7697 35.9551 30.8953 36.2592 31.1192 36.484C31.231 36.5964 31.3639 36.6857 31.5104 36.7466C31.6569 36.8075 31.814 36.8389 31.9727 36.8389C32.1314 36.8389 32.2885 36.8075 32.435 36.7466C32.5815 36.6857 32.7145 36.5964 32.8262 36.484C33.0501 36.2592 33.1758 35.9551 33.1758 35.6382C33.1758 35.3213 33.0501 35.0172 32.8262 34.7924C32.7145 34.68 32.5815 34.5907 32.435 34.5298C32.2885 34.4689 32.1314 34.4375 31.9727 34.4375C31.814 34.4375 31.6569 34.4689 31.5104 34.5298C31.3639 34.5907 31.231 34.68 31.1192 34.7924ZM41.9382 22.7953C40.6305 21.4795 38.8648 20.7177 37.0085 20.6686C35.1522 20.6194 33.3484 21.2866 31.9727 22.5314C30.6033 21.3012 28.8141 20.6406 26.9722 20.6852C25.1303 20.7298 23.3753 21.4763 22.0674 22.7713C20.7679 24.0788 20.02 25.8336 19.9775 27.6747C19.935 29.5158 20.6012 31.3031 21.839 32.6689C20.9135 33.7014 20.3063 34.9785 20.0901 36.3469C19.874 37.7153 20.058 39.1169 20.6203 40.3835C21.1825 41.6501 22.099 42.7278 23.2597 43.4875C24.4205 44.2471 25.7763 44.6563 27.1643 44.666C28.9437 44.6679 30.6592 44.0045 31.9727 42.8065C33.3428 44.0402 35.1345 44.7029 36.9793 44.6583C38.8241 44.6137 40.5816 43.8651 41.8901 42.5665C43.1879 41.2575 43.9336 39.5018 43.9739 37.6607C44.0141 35.8197 43.3458 34.0332 42.1065 32.6689C43.3458 31.3046 44.0141 29.5182 43.9739 27.6771C43.9336 25.836 43.1879 24.0804 41.8901 22.7713L41.9382 22.7953ZM40.1831 24.4749C41.0191 25.3332 41.5035 26.4722 41.5413 27.6686C41.5791 28.8649 41.1676 30.0322 40.3875 30.9413L33.7037 24.2709C34.6227 23.51 35.7887 23.1107 36.9821 23.1483C38.1756 23.1859 39.3141 23.6577 40.1831 24.4749ZM23.7623 40.8629C22.9263 40.0047 22.4419 38.8656 22.4041 37.6693C22.3663 36.4729 22.7778 35.3056 23.558 34.3965L30.2898 41.1149C29.3607 41.8803 28.1818 42.2777 26.9779 42.2312C25.774 42.1848 24.6294 41.6977 23.7623 40.8629ZM40.1831 40.8629C39.2704 41.7341 38.0561 42.2203 36.7932 42.2203C35.5302 42.2203 34.3159 41.7341 33.4032 40.8629L23.7864 31.2653C22.8908 30.3661 22.3881 29.1499 22.3881 27.8821C22.3881 26.6143 22.8908 25.398 23.7864 24.4989C24.6873 23.6051 25.906 23.1034 27.1763 23.1034C28.4466 23.1034 29.6653 23.6051 30.5662 24.4989L40.1831 34.0966C41.0787 34.9957 41.5814 36.212 41.5814 37.4798C41.5814 38.7475 41.0787 39.9638 40.1831 40.8629ZM34.1004 31.8171C33.9878 31.9287 33.8983 32.0613 33.8373 32.2075C33.7763 32.3537 33.7449 32.5105 33.7449 32.6689C33.7449 32.8273 33.7763 32.9841 33.8373 33.1303C33.8983 33.2765 33.9878 33.4092 34.1004 33.5207C34.3257 33.7442 34.6303 33.8696 34.9479 33.8696C35.2655 33.8696 35.5702 33.7442 35.7954 33.5207C35.9081 33.4092 35.9975 33.2765 36.0585 33.1303C36.1196 32.9841 36.151 32.8273 36.151 32.6689C36.151 32.5105 36.1196 32.3537 36.0585 32.2075C35.9975 32.0613 35.9081 31.9287 35.7954 31.8171C35.5702 31.5937 35.2655 31.4683 34.9479 31.4683C34.6303 31.4683 34.3257 31.5937 34.1004 31.8171ZM31.1192 28.8538C30.8953 29.0786 30.7697 29.3827 30.7697 29.6996C30.7697 30.0166 30.8953 30.3206 31.1192 30.5454C31.231 30.6579 31.3639 30.7471 31.5104 30.808C31.6569 30.8689 31.814 30.9003 31.9727 30.9003C32.1314 30.9003 32.2885 30.8689 32.435 30.808C32.5815 30.7471 32.7145 30.6579 32.8262 30.5454C33.0501 30.3206 33.1758 30.0166 33.1758 29.6996C33.1758 29.3827 33.0501 29.0786 32.8262 28.8538C32.7145 28.7414 32.5815 28.6521 32.435 28.5912C32.2885 28.5303 32.1314 28.499 31.9727 28.499C31.814 28.499 31.6569 28.5303 31.5104 28.5912C31.3639 28.6521 31.231 28.7414 31.1192 28.8538Z" fill="#0E436E"/>
</svg>
