<svg width="332" height="116" viewBox="0 0 332 116" fill="none" xmlns="http://www.w3.org/2000/svg">
<g filter="url(#filter0_d)">
<rect x="16" y="17.7279" width="300" height="64.8847" rx="10" fill="white"/>
<ellipse rx="42.4486" ry="42.0025" transform="matrix(1 0 -0.0108759 0.999941 66.9102 50.0001)" fill="white"/>
<path opacity="0.7" d="M97.8681 49.8766C97.6745 67.4816 83.3628 81.7532 65.902 81.7532C48.4413 81.7532 34.4435 67.4816 34.6372 49.8766C34.8308 32.2716 49.1425 18 66.6033 18C84.064 18 98.0618 32.2716 97.8681 49.8766ZM40.9603 49.8766C40.8054 63.9606 52.0036 75.3779 65.9722 75.3779C79.9408 75.3779 91.3901 63.9606 91.545 49.8766C91.7 35.7926 80.5018 24.3753 66.5332 24.3753C52.5646 24.3753 41.1152 35.7926 40.9603 49.8766Z" fill="#EFEFFF"/>
</g>
<defs>
<filter id="filter0_d" x="0" y="0" width="332" height="116" filterUnits="userSpaceOnUse" color-interpolation-filters="sRGB">
<feFlood flood-opacity="0" result="BackgroundImageFix"/>
<feColorMatrix in="SourceAlpha" type="matrix" values="0 0 0 0 0 0 0 0 0 0 0 0 0 0 0 0 0 0 127 0"/>
<feOffset dy="8"/>
<feGaussianBlur stdDeviation="8"/>
<feColorMatrix type="matrix" values="0 0 0 0 0.431373 0 0 0 0 0.470588 0 0 0 0 0.509804 0 0 0 0.12 0"/>
<feBlend mode="normal" in2="BackgroundImageFix" result="effect1_dropShadow"/>
<feBlend mode="normal" in="SourceGraphic" in2="effect1_dropShadow" result="shape"/>
</filter>
</defs>
</svg>
