<svg width="134" height="49" viewBox="0 0 134 49" fill="none" xmlns="http://www.w3.org/2000/svg">
<path d="M3.97206 9.18146C3.31204 10.2288 3.36057 12.3342 4.46708 12.007C4.57385 11.9742 4.68062 11.9524 4.78739 11.9306C6.44715 11.5815 7.87397 12.3888 8.80577 14.1888C9.76668 16.0434 10.5335 17.047 11.1935 17.3198C11.7273 17.5379 12.3097 17.3525 13.3871 16.9598C14.2218 16.6543 15.2604 16.2834 16.5708 16.0979C19.1041 15.7488 20.9289 16.9816 22.113 18.4543C21.6568 17.3416 20.8124 16.1852 19.5506 15.4215C17.0172 13.8943 19.5506 9.68329 19.5894 8.47236C19.6282 7.27235 19.0264 7.9269 18.3858 6.44324C17.7452 4.95959 21.6859 5.24323 21.9092 7.26144C22.1324 9.29055 21.1036 10.9815 22.1033 12.0615C23.103 13.1415 23.5884 11.6251 26.6167 11.6142C29.645 11.5924 35.0611 17.6689 31.528 24.3999C28.4221 30.3127 23.1322 28.6217 22.3168 31.3054C22.0159 32.2872 22.0548 35.5055 19.8418 37.0327C17.3472 38.7455 12.5135 39.891 9.62109 34.3927C6.72863 28.8945 9.66962 25.3708 12.2418 24.1599C13.0377 23.7889 13.5327 23.9526 14.0665 23.6471C16.5125 20.1671 17.8132 23.5162 19.1914 24.2253C20.6474 24.9671 20.5891 23.5271 19.9194 22.1089C19.2497 20.6907 19.5312 22.9053 18.114 22.1962C16.959 21.618 18.4343 19.1852 19.5991 18.6398C18.8711 18.1707 17.9393 17.8761 16.7746 18.0398C15.6195 18.2034 14.7072 18.5307 13.9112 18.8252C11.6885 19.6325 9.76668 20.3416 7.63131 17.2652C7.63131 17.2652 6.44715 15.6397 5.07857 15.9888C4.77768 16.0652 4.30208 16.4252 3.72941 16.9816C0.27399 20.3743 -0.890761 25.8726 0.701061 30.7054C1.3805 32.7782 2.35112 34.7745 3.61293 36.6182C5.26299 39.0291 7.25277 40.9601 9.45608 42.4001C12.7368 44.5383 16.1437 46.1092 19.8903 45.9783C23.9281 45.8256 28.2959 43.7638 31.7513 40.7855C33.7799 39.0401 35.6629 35.6036 36.8859 33.3127C39.3125 28.7745 39.9045 24.7708 39.0989 19.578C38.5457 16.0216 37.2256 12.5524 35.1194 9.4651C32.5375 5.69051 28.8006 2.43955 25.1122 1.03226C19.1526 -1.24777 12.7562 0.323157 7.32071 5.01413C5.67065 6.42142 5.1174 7.34871 3.97206 9.18146Z" fill="white"/>
<path d="M48.5334 31.3817C50.3776 32.5708 52.3285 32.6472 54.4736 32.5818C54.4736 31.6217 54.5027 31.1854 54.4445 30.2363C50.7464 30.0944 46.1457 27.5635 47.1163 23.3307C47.8831 19.9816 51.5229 18.0397 54.6483 17.1997C54.3377 16.5124 54.2407 15.6833 54.066 14.887C50.1252 15.5524 45.9904 17.3852 44.515 21.3016C43.1659 24.8907 45.3789 29.3526 48.5334 31.3817Z" fill="white"/>
<path d="M67.5285 37.0109L66.257 35.8437C65.8202 35.44 65.1408 35.4509 64.7331 35.8655L63.6654 36.9564C63.2578 37.3709 62.5395 37.4146 62.0542 37.0437L61.0836 36.3018C60.5983 35.9309 59.8218 35.9309 59.3365 36.2909L58.0747 37.2182C57.5893 37.5782 56.8517 37.5346 56.4343 37.1309L55.3957 36.1273C54.9687 35.7237 54.2698 35.7018 53.833 36.0946L52.7653 37.0437C52.3189 37.4364 51.6394 37.4037 51.2415 36.9891L49.9894 35.6691C49.5914 35.2436 48.9411 35.2436 48.5431 35.6582L46.7863 37.491C46.3884 37.9055 46.3204 38.3964 46.6407 38.5928C46.961 38.7782 47.5434 38.6037 47.9511 38.1782L48.5528 37.5564C48.9508 37.1419 49.6011 37.1419 49.9991 37.5673L51.1541 38.7891C51.5521 39.2146 52.2412 39.2364 52.678 38.8437L53.7942 37.8509C54.2407 37.4582 54.9395 37.48 55.3569 37.8837L56.2984 38.8001C56.7255 39.2037 57.4535 39.2473 57.9485 38.8873L59.3365 37.8619C59.8218 37.5019 60.608 37.5128 61.0836 37.8728L62.2289 38.7455C62.7142 39.1164 63.4325 39.0728 63.8402 38.6582L64.8108 37.6764C65.2184 37.2619 65.8979 37.2509 66.3347 37.6546L66.4414 37.7528C66.8782 38.1564 67.48 38.3091 67.7809 38.1128C68.0721 37.9055 67.9653 37.4146 67.5285 37.0109Z" fill="white"/>
<path d="M70.9742 35.7235C70.3724 36.2908 70.3724 36.629 70.3724 37.1526C70.3724 38.8654 72.2846 39.8581 73.7114 38.6908C75.6915 37.0544 72.8669 34.6435 70.9742 35.7235Z" fill="white"/>
<path d="M132.211 36.4654L78.1569 36.2036C77.4969 36.2036 76.963 36.3454 76.963 36.52L76.9242 38.5055C76.9242 38.68 77.4483 38.8218 78.1084 38.8327L132.162 39.0946C132.822 39.0946 133.356 38.9527 133.356 38.7782L133.395 36.7927C133.395 36.6182 132.871 36.4763 132.211 36.4654Z" fill="white"/>
<path d="M125.378 22.4144C125.572 21.7489 125.679 20.8216 125.941 20.178C126.3 20.6035 126.62 21.258 126.678 21.378C126.94 21.9235 127.173 22.4689 127.416 23.0253C127.571 23.3744 127.736 23.6689 127.863 24.018C127.911 24.138 127.96 24.258 127.989 24.378C128.018 24.4762 128.105 24.6181 128.037 24.6181L124.854 24.6508C125.028 23.9635 125.164 23.1889 125.378 22.4144ZM124.572 28.0217C124.572 28.0217 128.416 28.0217 128.455 28.1636C128.503 28.3599 129.6 31.5018 129.678 31.6654L133.298 31.6218C133.56 31.6218 133.24 31.1091 133.123 30.7272C132.987 30.2799 132.803 29.8327 132.638 29.3745C132.162 28.0654 131.522 26.9635 130.949 25.6653C130.037 23.5926 129.183 21.5198 128.183 19.4798C127.95 19.0107 126.766 16.567 125.417 14.9634C124.436 17.407 123.398 19.9053 122.689 22.4144C121.864 25.3272 120.593 29.189 119.981 31.7418L123.534 31.6981C123.708 31.1309 124.427 28.5236 124.572 28.0217Z" fill="white"/>
<path d="M108.149 32.0364C108.149 32.0364 108.159 26.8982 108.11 25.0873C109.217 25.2291 110.343 25.0873 111.401 25.0436C112.362 25 113.575 25.0436 114.594 25.12C114.594 25.2836 114.594 25.4582 114.594 25.6218C114.594 25.9382 114.594 26.2436 114.594 26.56C114.594 27.5527 114.575 28.5346 114.546 29.5055C114.536 29.7019 114.536 29.9091 114.526 30.1055C114.497 30.7819 114.575 31.4692 114.526 32.1128C115.904 32.2764 117.38 31.9492 118.69 31.9492L118.68 30.1055V29.5055L118.671 26.56V25.6218L118.661 22.4145V21.8036L118.651 18.389V17.4181L118.642 15.9999C117.263 15.9999 115.914 16.0435 114.555 16.1962C114.546 16.5999 114.546 17.0144 114.546 17.429C114.546 17.7453 114.546 18.0726 114.546 18.3999C114.546 19.4908 114.555 20.6145 114.575 21.7381C113.623 21.6727 112.672 21.6836 111.721 21.7163C110.721 21.7599 109.731 21.8145 108.731 21.8254C108.499 21.8254 108.266 21.8363 108.033 21.8472C107.994 19.2399 107.974 16.4253 107.732 14.898L105.228 14.7017C105.228 19.8181 105.849 26.3855 105.839 32.0037C106.868 32.2437 108.149 32.0364 108.149 32.0364Z" fill="white"/>
<path d="M59.0258 32.5163C59.0258 32.5163 59.0258 32.4618 59.0258 32.3527C59.7149 32.3527 60.1905 32.3527 60.8505 32.32C62.2288 32.2545 63.6071 32.2654 64.9854 32.1673C65.0339 31.3491 65.063 30.6618 65.063 29.3527L59.0258 29.2436C59.0258 27.6726 59.0063 25.9708 58.9772 25.1853V25.1744C59.3946 25.109 59.812 25.0108 60.2196 24.989C60.8505 24.9562 61.4814 24.9344 62.1123 24.9999C62.1803 24.3999 62.2482 23.7562 62.2968 23.0908C61.6659 23.0144 61.0252 23.0253 60.3943 23.058C59.909 23.0799 59.414 23.1126 58.919 23.1235C58.8899 21.6507 58.8802 20.058 58.8413 18.6071C59.9575 18.6507 61.0835 18.3889 62.1512 18.3562C63.2383 18.3125 64.3254 18.3016 65.4027 18.3671C65.5192 17.6798 65.626 16.9489 65.7231 16.1852C64.636 16.0979 63.5391 16.1089 62.4521 16.1416C61.4717 16.1743 60.4914 16.2179 59.5111 16.2179C59.249 16.2179 58.9869 16.2288 58.7249 16.2288C58.686 15.7488 58.6472 15.3125 58.5987 14.9525L56.1333 14.7561C56.1333 19.9925 56.7448 26.7235 56.7351 32.4727C57.7736 32.7127 59.0258 32.5163 59.0258 32.5163Z" fill="white"/>
<path d="M103.306 15.1271L99.5493 14.9417C99.5493 18.869 100.112 23.6472 100.355 28.1964C99.326 26.5491 98.006 24.4654 97.5013 23.7454C95.2882 20.6145 93.4344 17.3744 92.3278 15.4217C92.3181 15.3235 92.3084 15.2253 92.2987 15.138L90.3866 14.9526C90.3866 15.6726 90.3963 16.4253 90.4157 17.1999L90.3866 17.2217C90.3963 17.2326 90.406 17.2435 90.4157 17.2544C90.5128 21.8799 90.8622 27.3018 90.8525 32.0364C91.6484 32.2764 92.6287 32.0801 92.6287 32.0801C92.6287 32.0801 92.6384 26.6036 92.5899 25.0218C92.5414 23.5163 92.5317 21.629 92.5123 19.8399C95.2106 23.4945 98.0545 28.3818 100.452 32.0037C100.462 32.0037 100.471 31.9928 100.471 31.9928C100.471 32.0146 100.471 32.0255 100.471 32.0473C102.044 32.2873 103.956 32.091 103.956 32.091C103.956 32.091 103.975 26.6145 103.878 25.0327C103.674 21.9454 103.81 17.2653 103.306 15.1271Z" fill="white"/>
<path d="M72.4786 27.3453H73.8084V29.9526C70.9256 29.669 68.2855 28.5671 68.567 23.3089C68.7514 19.9706 72.8669 17.7343 75.7593 17.527C75.7593 16.1088 75.7593 16.1088 75.7593 14.7451C70.2559 15.1597 67.5382 17.5161 66.1987 21.3343C64.9757 24.8253 66.1502 30.3017 69.3532 31.6653C71.2168 32.4508 73.2843 32.3963 75.2352 32.3308C75.2352 32.3308 75.2643 30.9672 75.2061 30.0399V27.3453H76.7008V26.0471L72.4592 26.3962V27.3453H72.4786Z" fill="white"/>
<path d="M86.3197 18.4981C87.533 20.3308 87.5427 21.4108 87.533 23.0908C87.4942 28.5673 83.5632 31.6764 80.6707 27.8691C76.6329 22.5672 82.4469 14.9635 86.3197 18.4981ZM89.4743 22.8618C89.4937 20.3854 89.4743 18.7926 87.6883 16.1089C82.0005 10.9161 73.4396 22.0981 79.3798 29.8982C83.6408 35.4838 89.4257 30.9128 89.4743 22.8618Z" fill="white"/>
<path d="M61.6368 47.1893H59.4141L59.4432 45.8474L59.4141 42.7383H61.6465L61.6659 42.7928L61.6271 43.2183L60.6953 43.1965L59.9091 43.2183L59.8994 44.6692L60.637 44.691L61.2971 44.6692L61.3359 44.7129L61.2874 45.1492L60.5982 45.1383H59.8897V45.8038L59.9091 46.7311H60.6953L61.6465 46.7092L61.6756 46.7638L61.6368 47.1893Z" fill="white"/>
<path d="M64.1022 42.3564L64.0634 42.7819L64.0245 42.8146C63.879 42.7273 63.7237 42.6946 63.5781 42.6946C63.2481 42.6946 63.0733 42.9237 63.0733 43.371L63.0636 44.0146H63.811L63.8304 44.0582L63.8013 44.3855H63.0636L63.0539 45.7928L63.083 47.1892H62.5977L62.6366 45.8364L62.6268 44.3855H62.1998L62.1707 44.3419L62.1998 44.0146H62.6171L62.6074 43.4582C62.6074 43.0873 62.6851 42.7928 62.8695 42.5964C63.0442 42.4 63.2966 42.3019 63.6266 42.3019C63.7722 42.2909 63.9372 42.3128 64.1022 42.3564Z" fill="white"/>
<path d="M64.9855 44.5709C64.8496 44.7236 64.7525 44.9309 64.7137 45.2036L66.0726 45.16L66.0823 45.0727C66.0823 44.8327 66.0338 44.6472 65.927 44.5272C65.8202 44.4072 65.6843 44.3418 65.4999 44.3418C65.2961 44.3418 65.1214 44.4181 64.9855 44.5709ZM64.6846 45.5963C64.6846 45.9782 64.7525 46.2836 64.8981 46.4909C65.0437 46.6982 65.2476 46.8073 65.529 46.8073C65.8105 46.8073 66.092 46.6982 66.3541 46.4909L66.4123 46.5236L66.3638 46.9927C66.0629 47.1673 65.7814 47.2545 65.4999 47.2545C65.0922 47.2545 64.7817 47.1127 64.5487 46.8182C64.3255 46.5236 64.209 46.1309 64.209 45.6291C64.209 45.1163 64.3255 44.7127 64.5681 44.4072C64.8108 44.1127 65.1311 43.96 65.5387 43.96C65.8493 43.96 66.092 44.0691 66.257 44.2763C66.4317 44.4836 66.5094 44.7782 66.5094 45.16L66.4997 45.4763L66.3929 45.5636L64.6652 45.5745V45.5963H64.6846Z" fill="white"/>
<path d="M68.8291 46.6329L68.8873 46.6765L68.8388 47.0365C68.6155 47.1565 68.4117 47.222 68.2176 47.2329C67.9846 47.1784 67.8099 47.0802 67.7129 46.9384C67.6061 46.7965 67.5576 46.5893 67.5576 46.3165L67.577 45.8256L67.5673 44.3856H67.179L67.1499 44.342L67.179 44.0147H67.5576V43.5019L67.9846 43.2947L68.0332 43.3383L68.0235 44.0147H68.8679L68.897 44.0583L68.8679 44.3856H68.0332L68.004 46.2729C68.004 46.4584 68.0332 46.5893 68.0914 46.6656C68.1496 46.742 68.2564 46.7747 68.3923 46.7747C68.5185 46.7638 68.6738 46.7202 68.8291 46.6329Z" fill="white"/>
<path d="M70.1976 47.1893H69.7123L69.7414 45.8366L69.7123 44.0365L70.1976 43.9929L70.1588 45.7929L70.1976 47.1893ZM70.1782 42.662C70.2267 42.7165 70.2558 42.7929 70.2558 42.8802C70.2558 42.9893 70.2267 43.0656 70.1782 43.1311C70.1297 43.1856 70.052 43.2184 69.9647 43.2184C69.7802 43.2184 69.6929 43.1093 69.6929 42.902C69.6929 42.8038 69.722 42.7274 69.7705 42.662C69.8191 42.6074 69.8967 42.5747 69.9841 42.5747C70.0617 42.5856 70.1199 42.6074 70.1782 42.662Z" fill="white"/>
<path d="M72.1874 46.6438H72.2165L72.9348 44.4401L73.0415 44.0038H73.4783L72.4397 47.1893H71.9156L71.0323 44.0147L71.4885 43.9819L71.5759 44.4074L72.1874 46.6438Z" fill="white"/>
<path d="M74.4296 46.0764C74.3908 46.1201 74.3713 46.1964 74.3713 46.2946C74.3713 46.4474 74.4102 46.5673 74.4878 46.6546C74.5655 46.7419 74.6625 46.7855 74.7984 46.7855C75.0217 46.7855 75.2546 46.6219 75.4876 46.2946L75.507 45.7273L74.614 45.9673C74.5266 45.9892 74.4684 46.0219 74.4296 46.0764ZM75.7399 44.1782C75.8952 44.331 75.9729 44.5273 75.9729 44.7891C75.9729 44.8655 75.9632 45.1492 75.9341 45.6401C75.9049 46.131 75.8952 46.4146 75.8952 46.5019C75.8952 46.6001 75.9146 46.6764 75.9341 46.7092C75.9632 46.7528 76.0117 46.7637 76.0796 46.7637C76.1379 46.7637 76.2155 46.7528 76.2932 46.7201L76.3417 46.7637L76.2932 47.0801C76.1767 47.1565 76.0602 47.2001 75.9438 47.2219C75.8176 47.211 75.7108 47.1565 75.6332 47.0692C75.5555 46.9819 75.5167 46.8619 75.5167 46.7092H75.4779C75.2546 46.9601 75.0314 47.1346 74.8178 47.2328C74.5461 47.2328 74.3228 47.1565 74.1675 47.0037C74.0122 46.851 73.9346 46.6328 73.9346 46.371C73.9346 45.9783 74.1287 45.7273 74.5072 45.6292L75.507 45.3673L75.5167 44.9201C75.5167 44.7346 75.4779 44.6037 75.3905 44.5055C75.3031 44.4073 75.1867 44.3637 75.0314 44.3637C74.7596 44.3637 74.4684 44.5164 74.1578 44.8219L74.1093 44.7891L74.051 44.3964C74.3908 44.1128 74.7499 43.971 75.109 43.971C75.3711 43.9491 75.5846 44.0255 75.7399 44.1782Z" fill="white"/>
<path d="M78.943 44.5818C78.8557 44.4727 78.7392 44.4181 78.5742 44.4181C78.3024 44.4181 78.0209 44.5818 77.7395 44.9091L77.7298 45.7818L77.7589 47.1782H77.2736L77.3027 45.8254L77.2736 44.0254L77.7395 43.9818L77.7298 44.4509H77.7686C78.0209 44.2 78.283 44.0363 78.5548 43.96C78.8654 43.96 79.108 44.0363 79.2633 44.2C79.4283 44.3636 79.506 44.5927 79.4963 44.8982L79.4866 45.8036L79.5157 47.1891H79.0207L79.0498 45.0291C79.0595 44.8436 79.0207 44.6909 78.943 44.5818Z" fill="white"/>
<path d="M81.1561 44.6475C81.0008 44.8548 80.9231 45.1384 80.9231 45.5202C80.9231 45.913 80.9911 46.2184 81.1366 46.4366C81.2725 46.6548 81.4667 46.7639 81.7093 46.7639C81.9423 46.7639 82.1752 46.6221 82.3887 46.3384L82.3985 45.8366L82.3887 44.5166C82.1655 44.3966 81.9617 44.342 81.787 44.342C81.5152 44.342 81.3114 44.4402 81.1561 44.6475ZM82.8352 46.513C82.8352 46.6112 82.8546 46.6766 82.8741 46.7202C82.9032 46.7639 82.942 46.7748 83.0099 46.7748C83.0779 46.7748 83.1458 46.7639 83.2235 46.7312L83.272 46.7748L83.2332 47.0912C83.1167 47.1675 83.0002 47.2112 82.8838 47.233C82.6314 47.2003 82.4858 47.0475 82.447 46.7421H82.4082C82.1752 46.9712 81.952 47.1239 81.7384 47.2221C81.3308 47.2221 81.0202 47.0803 80.7969 46.7966C80.5834 46.513 80.4669 46.1202 80.4669 45.5966C80.4669 45.073 80.5834 44.6693 80.826 44.3748C81.0687 44.0802 81.4084 43.9384 81.8355 43.9384C82.0199 43.9384 82.2043 43.9602 82.379 44.0038L82.3693 42.3456L82.8547 42.302L82.8158 45.7821L82.8352 46.513Z" fill="white"/>
<path d="M84.5823 44.6365C84.4464 44.8329 84.3785 45.1274 84.3785 45.5092C84.3785 46.4038 84.6406 46.8402 85.1647 46.8402C85.6985 46.8402 85.9606 46.4474 85.9606 45.6729C85.9606 45.2365 85.8927 44.8983 85.7568 44.6692C85.6209 44.4401 85.4268 44.331 85.1744 44.331C84.9123 44.3419 84.7182 44.4401 84.5823 44.6365ZM86.0965 44.3747C86.31 44.6583 86.4168 45.051 86.4168 45.5638C86.4168 46.0983 86.31 46.5129 86.0868 46.8074C85.8636 47.102 85.5432 47.2438 85.1356 47.2438C84.7473 47.2438 84.4464 47.102 84.2329 46.8183C84.0194 46.5347 83.9126 46.142 83.9126 45.6292C83.9126 45.0947 84.0291 44.6801 84.2523 44.3856C84.4756 44.091 84.7959 43.9492 85.2035 43.9492C85.5918 43.9492 85.8927 44.091 86.0965 44.3747Z" fill="white"/>
<path d="M88.9599 46.0764C88.921 46.1201 88.9016 46.1964 88.9016 46.2946C88.9016 46.4474 88.9404 46.5673 89.0181 46.6546C89.0957 46.7419 89.1928 46.7855 89.3287 46.7855C89.5519 46.7855 89.7849 46.6219 90.0178 46.2946L90.0372 45.7273L89.1443 45.9673C89.0569 45.9892 88.9987 46.0219 88.9599 46.0764ZM90.2702 44.1782C90.4255 44.331 90.5032 44.5273 90.5032 44.7891C90.5032 44.8655 90.4934 45.1492 90.4643 45.6401C90.4352 46.131 90.4255 46.4146 90.4255 46.5019C90.4255 46.6001 90.4449 46.6764 90.4643 46.7092C90.4934 46.7528 90.542 46.7637 90.6099 46.7637C90.6682 46.7637 90.7458 46.7528 90.8235 46.7201L90.872 46.7637L90.8235 47.0801C90.707 47.1565 90.5905 47.2001 90.474 47.2219C90.3478 47.211 90.2411 47.1565 90.1634 47.0692C90.0858 46.9819 90.047 46.8619 90.047 46.7092H90.0081C89.7849 46.9601 89.5617 47.1346 89.3481 47.2328C89.0763 47.2328 88.8531 47.1565 88.6978 47.0037C88.5425 46.851 88.4648 46.6328 88.4648 46.371C88.4648 45.9783 88.659 45.7273 89.0375 45.6292L90.0372 45.3673L90.047 44.9201C90.047 44.7346 90.0081 44.6037 89.9208 44.5055C89.8334 44.4073 89.717 44.3637 89.5617 44.3637C89.2899 44.3637 88.9987 44.5164 88.6881 44.8219L88.6395 44.7891L88.5813 44.3964C88.921 44.1128 89.2802 43.971 89.6393 43.971C89.9014 43.9491 90.1149 44.0255 90.2702 44.1782Z" fill="white"/>
<path d="M93.5217 44.6475C93.3664 44.8548 93.2888 45.1384 93.2888 45.5202C93.2888 45.913 93.3567 46.2184 93.5023 46.4366C93.6382 46.6548 93.8323 46.7639 94.075 46.7639C94.3079 46.7639 94.5409 46.6221 94.7544 46.3384L94.7641 45.8366L94.7544 44.5166C94.5312 44.3966 94.3273 44.342 94.1526 44.342C93.8809 44.342 93.677 44.4402 93.5217 44.6475ZM95.2009 46.513C95.2009 46.6112 95.2203 46.6766 95.2397 46.7202C95.2688 46.7639 95.3077 46.7748 95.3756 46.7748C95.4436 46.7748 95.5115 46.7639 95.5892 46.7312L95.6377 46.7748L95.5989 47.0912C95.4824 47.1675 95.3659 47.2112 95.2494 47.233C94.9971 47.2003 94.8515 47.0475 94.8126 46.7421H94.7738C94.5409 46.9712 94.3176 47.1239 94.1041 47.2221C93.6964 47.2221 93.3858 47.0803 93.1626 46.7966C92.9491 46.513 92.8423 46.1202 92.8423 45.5966C92.8423 45.073 92.9588 44.6693 93.2014 44.3748C93.4441 44.0802 93.7838 43.9384 94.2109 43.9384C94.3953 43.9384 94.5797 43.9602 94.7544 44.0038L94.7447 42.3456L95.23 42.302L95.1912 45.7821L95.2009 46.513Z" fill="white"/>
<path d="M96.9967 47.1893H96.5113L96.5405 45.8366L96.5113 44.0365L96.9967 43.9929L96.9578 45.7929L96.9967 47.1893ZM96.9773 42.662C97.0258 42.7165 97.0549 42.7929 97.0549 42.8802C97.0549 42.9893 97.0258 43.0656 96.9773 43.1311C96.9287 43.1856 96.8511 43.2184 96.7637 43.2184C96.5793 43.2184 96.4919 43.1093 96.4919 42.902C96.4919 42.8038 96.5211 42.7274 96.5696 42.662C96.6181 42.6074 96.6958 42.5747 96.7831 42.5747C96.8608 42.5856 96.919 42.6074 96.9773 42.662Z" fill="white"/>
<path d="M99.6852 45.5747C99.8017 45.4438 99.8599 45.2693 99.8599 45.0293C99.8599 44.8111 99.8017 44.6365 99.6949 44.5165C99.5881 44.3965 99.4328 44.3311 99.229 44.3311C99.0252 44.3311 98.8602 44.3965 98.7437 44.5165C98.6272 44.6365 98.569 44.822 98.569 45.0511C98.569 45.2693 98.6272 45.4438 98.734 45.5747C98.8408 45.6947 98.9961 45.7602 99.1999 45.7602C99.4134 45.7711 99.5687 45.7056 99.6852 45.5747ZM99.9084 47.3311C99.8308 47.2657 99.7434 47.222 99.6367 47.2002C99.5299 47.1675 99.3746 47.1457 99.1805 47.1129L98.9864 47.0802C98.666 47.2984 98.5108 47.5057 98.5108 47.6911C98.5108 47.822 98.569 47.942 98.6855 48.0293C98.8019 48.1166 98.9669 48.1602 99.1805 48.1602C99.4231 48.1602 99.6173 48.1057 99.7823 47.9966C99.9473 47.8875 100.025 47.7566 100.025 47.5929C100.025 47.4729 99.9861 47.3857 99.9084 47.3311ZM100.171 44.4184L100.161 44.4511C100.248 44.6147 100.297 44.8111 100.297 45.0402C100.297 45.3784 100.2 45.6511 99.9958 45.8475C99.792 46.0438 99.5202 46.142 99.1805 46.142C99.0446 46.142 98.9184 46.1202 98.8019 46.0875C98.6855 46.1857 98.6175 46.2838 98.6175 46.3602C98.6175 46.4584 98.6758 46.5238 98.7825 46.5675C98.8893 46.6111 99.064 46.6438 99.3067 46.6875C99.5493 46.7202 99.7434 46.7638 99.8987 46.8075C100.054 46.8511 100.18 46.9275 100.297 47.0366C100.403 47.1457 100.462 47.2875 100.462 47.4729C100.462 47.6693 100.403 47.8439 100.287 48.0075C100.171 48.1711 100.006 48.302 99.8017 48.3893C99.5978 48.4875 99.3746 48.5311 99.132 48.5311C98.8019 48.5311 98.5496 48.4439 98.3652 48.2802C98.1807 48.1057 98.0934 47.8875 98.0934 47.6257C98.1904 47.4075 98.3749 47.2002 98.6369 47.0257V46.9929C98.3263 46.8838 98.171 46.6984 98.171 46.4366C98.2584 46.2729 98.3846 46.1311 98.5496 46.0111V45.9784C98.2778 45.7929 98.1516 45.4984 98.1516 45.0838C98.1516 44.7347 98.2487 44.462 98.4525 44.2656C98.6563 44.0693 98.9184 43.9711 99.2484 43.9711C99.462 43.9711 99.6464 44.0147 99.8017 44.0911C100.083 44.0256 100.384 43.9493 100.695 43.8511L100.743 43.8947V44.2656C100.617 44.3202 100.423 44.3638 100.171 44.4184Z" fill="white"/>
<path d="M103.16 44.5818C103.073 44.4727 102.956 44.4181 102.791 44.4181C102.519 44.4181 102.238 44.5818 101.956 44.9091L101.947 45.7818L101.976 47.1782H101.491L101.52 45.8254L101.491 44.0254L101.956 43.9818L101.947 44.4509H101.986C102.238 44.2 102.5 44.0363 102.772 43.96C103.082 43.96 103.325 44.0363 103.48 44.2C103.645 44.3636 103.723 44.5927 103.713 44.8982L103.704 45.8036L103.733 47.1891H103.238L103.267 45.0291C103.277 44.8436 103.238 44.6909 103.16 44.5818Z" fill="white"/>
<path d="M105.412 47.1893H104.927L104.956 45.8366L104.927 44.0365L105.412 43.9929L105.373 45.7929L105.412 47.1893ZM105.383 42.662C105.431 42.7165 105.46 42.7929 105.46 42.8802C105.46 42.9893 105.431 43.0656 105.383 43.1311C105.334 43.1856 105.257 43.2184 105.169 43.2184C104.985 43.2184 104.897 43.1093 104.897 42.902C104.897 42.8038 104.927 42.7274 104.975 42.662C105.024 42.6074 105.101 42.5747 105.189 42.5747C105.266 42.5856 105.334 42.6074 105.383 42.662Z" fill="white"/>
<path d="M107.091 44.6475C106.936 44.8548 106.858 45.1384 106.858 45.5202C106.858 45.913 106.926 46.2184 107.072 46.4366C107.207 46.6548 107.402 46.7639 107.644 46.7639C107.877 46.7639 108.11 46.6221 108.324 46.3384L108.333 45.8366L108.324 44.5166C108.1 44.3966 107.897 44.342 107.722 44.342C107.45 44.342 107.246 44.4402 107.091 44.6475ZM108.78 46.513C108.78 46.6112 108.799 46.6766 108.819 46.7202C108.848 46.7639 108.887 46.7748 108.955 46.7748C109.023 46.7748 109.09 46.7639 109.168 46.7312L109.217 46.7748L109.178 47.0912C109.061 47.1675 108.945 47.2112 108.828 47.233C108.576 47.2003 108.43 47.0475 108.392 46.7421H108.353C108.12 46.9712 107.897 47.1239 107.683 47.2221C107.275 47.2221 106.965 47.0803 106.742 46.7966C106.528 46.513 106.421 46.1202 106.421 45.5966C106.421 45.073 106.538 44.6693 106.78 44.3748C107.023 44.0802 107.363 43.9384 107.79 43.9384C107.974 43.9384 108.159 43.9602 108.333 44.0038L108.324 42.3456L108.809 42.302L108.77 45.7821L108.78 46.513Z" fill="white"/>
<path d="M110.343 46.0764C110.304 46.1201 110.284 46.1964 110.284 46.2946C110.284 46.4474 110.323 46.5673 110.401 46.6546C110.479 46.7419 110.576 46.7855 110.712 46.7855C110.935 46.7855 111.168 46.6219 111.401 46.2946L111.42 45.7273L110.527 45.9673C110.44 45.9892 110.381 46.0219 110.343 46.0764ZM111.653 44.1782C111.808 44.331 111.886 44.5273 111.886 44.7891C111.886 44.8655 111.876 45.1492 111.847 45.6401C111.818 46.131 111.808 46.4146 111.808 46.5019C111.808 46.6001 111.818 46.6764 111.847 46.7092C111.876 46.7528 111.925 46.7637 111.993 46.7637C112.051 46.7637 112.129 46.7528 112.206 46.7201L112.255 46.7637L112.206 47.0801C112.09 47.1565 111.973 47.2001 111.857 47.2219C111.731 47.211 111.624 47.1565 111.546 47.0692C111.469 46.9819 111.43 46.8619 111.43 46.7092H111.391C111.168 46.9601 110.944 47.1346 110.731 47.2328C110.459 47.2328 110.236 47.1565 110.081 47.0037C109.925 46.851 109.848 46.6328 109.848 46.371C109.848 45.9783 110.042 45.7273 110.42 45.6292L111.42 45.3673L111.43 44.9201C111.43 44.7346 111.391 44.6037 111.304 44.5055C111.216 44.4073 111.1 44.3637 110.944 44.3637C110.673 44.3637 110.381 44.5164 110.071 44.8219L110.022 44.7891L109.964 44.3964C110.304 44.1128 110.663 43.971 111.022 43.971C111.294 43.9491 111.498 44.0255 111.653 44.1782Z" fill="white"/>
<path d="M113.633 44.6475C113.478 44.8548 113.4 45.1384 113.4 45.5202C113.4 45.913 113.468 46.2184 113.614 46.4366C113.75 46.6548 113.944 46.7639 114.186 46.7639C114.419 46.7639 114.652 46.6221 114.866 46.3384L114.875 45.8366L114.866 44.5166C114.642 44.3966 114.439 44.342 114.264 44.342C114.002 44.342 113.788 44.4402 113.633 44.6475ZM115.322 46.513C115.322 46.6112 115.341 46.6766 115.361 46.7202C115.39 46.7639 115.429 46.7748 115.497 46.7748C115.565 46.7748 115.633 46.7639 115.71 46.7312L115.759 46.7748L115.72 47.0912C115.603 47.1675 115.487 47.2112 115.37 47.233C115.118 47.2003 114.973 47.0475 114.934 46.7421H114.895C114.662 46.9712 114.439 47.1239 114.225 47.2221C113.817 47.2221 113.507 47.0803 113.284 46.7966C113.07 46.513 112.954 46.1202 112.954 45.5966C112.954 45.073 113.07 44.6693 113.313 44.3748C113.555 44.0802 113.895 43.9384 114.322 43.9384C114.507 43.9384 114.691 43.9602 114.866 44.0038L114.856 42.3456L115.341 42.302L115.303 45.7821L115.322 46.513Z" fill="white"/>
<path d="M117.156 44.5709C117.021 44.7236 116.933 44.9309 116.885 45.2036L118.244 45.16L118.253 45.0727C118.253 44.8327 118.205 44.6472 118.098 44.5272C117.991 44.4072 117.855 44.3418 117.671 44.3418C117.477 44.3418 117.302 44.4181 117.156 44.5709ZM116.865 45.5963C116.865 45.9782 116.933 46.2836 117.079 46.4909C117.224 46.6982 117.428 46.8073 117.71 46.8073C117.991 46.8073 118.273 46.6982 118.535 46.4909L118.593 46.5236L118.544 46.9927C118.244 47.1673 117.962 47.2545 117.681 47.2545C117.273 47.2545 116.962 47.1127 116.729 46.8182C116.506 46.5236 116.39 46.1309 116.39 45.6291C116.39 45.1163 116.506 44.7127 116.749 44.4072C116.991 44.1127 117.312 43.96 117.719 43.96C118.03 43.96 118.273 44.0691 118.438 44.2763C118.612 44.4836 118.69 44.7782 118.69 45.16L118.68 45.4763L118.574 45.5636L116.846 45.5745V45.5963H116.865Z" fill="white"/>
<path d="M63.9761 6.7051C64.3837 6.7051 64.5876 6.65055 64.5876 6.05054C64.5876 5.46144 64.3837 5.39599 63.9761 5.39599H63.5199C63.3549 5.39599 63.2675 5.49417 63.2675 5.67962V6.41055C63.2675 6.596 63.3646 6.69418 63.5199 6.69418H63.9761V6.7051ZM63.9178 3.77051C65.432 3.77051 66.0435 4.50143 66.0435 6.06145C66.0435 7.63238 65.432 8.35239 63.9178 8.35239H63.5102C63.3452 8.35239 63.2578 8.45057 63.2578 8.63603V10.1633C63.2578 10.3488 63.1705 10.447 63.0055 10.447H62.0542C61.8892 10.447 61.8019 10.3379 61.8019 10.1633V4.06506C61.8019 3.86869 61.8892 3.78142 62.0542 3.77051H63.9178Z" fill="white"/>
<path d="M71.8866 5.40689C71.7313 5.40689 71.6246 5.5269 71.6246 5.70144V6.41055C71.6246 6.58509 71.7313 6.7051 71.8866 6.7051H72.3234C72.7311 6.7051 72.9349 6.65055 72.9349 6.05054C72.9349 5.46144 72.7311 5.39599 72.3234 5.39599H71.8866V5.40689ZM74.6141 9.93423C74.7306 10.1851 74.5947 10.447 74.3326 10.447H73.362C73.2746 10.447 73.197 10.4033 73.1679 10.3161L72.2846 8.39603C72.2652 8.3633 72.2458 8.35239 72.2167 8.35239H71.8769C71.7216 8.35239 71.6149 8.47239 71.6149 8.64694V10.1524C71.6149 10.327 71.5081 10.447 71.3528 10.447H70.4016C70.2463 10.447 70.1395 10.327 70.1395 10.1524V4.06506C70.1395 3.89051 70.2463 3.77051 70.4016 3.77051H72.2652C73.7794 3.77051 74.3909 4.50143 74.3909 6.06145C74.3909 6.9451 74.1967 7.56692 73.7405 7.93784C73.7017 7.97056 73.7017 8.0142 73.7114 8.05784L74.6141 9.93423Z" fill="white"/>
<path d="M81.4667 6.42144C81.4667 5.69052 81.4278 5.23233 80.7969 5.23233C80.166 5.23233 80.1272 5.67961 80.1272 6.42144V7.79601C80.1272 8.52693 80.166 8.98511 80.7969 8.98511C81.4278 8.98511 81.4667 8.53784 81.4667 7.79601V6.42144ZM82.9226 8.30874C82.9226 8.94147 82.8061 10.6324 80.7872 10.6324C78.778 10.6324 78.6519 8.94147 78.6519 8.30874V5.91962C78.6519 5.28688 78.7683 3.59595 80.7872 3.59595C82.7964 3.59595 82.9226 5.28688 82.9226 5.91962V8.30874Z" fill="white"/>
<path d="M90.9108 3.77067C91.0661 3.77067 91.1729 3.89068 91.1729 4.06522V8.30892C91.1729 8.94165 91.0564 10.6326 89.0375 10.6326C87.2321 10.6326 86.9507 9.26893 86.9118 8.5271C86.9021 8.39619 86.9798 8.2871 87.0962 8.25437L88.0378 8.01437C88.2125 7.97073 88.3484 8.11255 88.3775 8.30892C88.4163 8.73438 88.5716 8.97438 89.0278 8.97438C89.6587 8.97438 89.6975 8.5271 89.6975 7.78527V4.05432C89.6975 3.87977 89.8043 3.75977 89.9596 3.75977H90.9108V3.77067Z" fill="white"/>
<path d="M99.3747 3.7706C99.5494 3.7706 99.627 3.86878 99.627 4.05424V5.12335C99.627 5.3088 99.5397 5.40698 99.3747 5.40698H97.3169C97.1519 5.40698 97.0646 5.50517 97.0646 5.69063V5.99608C97.0646 6.18154 97.1616 6.27973 97.3169 6.27973H98.637C98.8117 6.27973 98.8894 6.37791 98.8894 6.56336V7.63247C98.8894 7.81793 98.802 7.91611 98.637 7.91611H97.3169C97.1519 7.91611 97.0646 8.01429 97.0646 8.19975V8.50521C97.0646 8.69066 97.1616 8.78885 97.3169 8.78885H99.3747C99.5494 8.78885 99.627 8.88703 99.627 9.07249V10.1416C99.627 10.3271 99.5397 10.4252 99.3747 10.4252H95.8028C95.6378 10.4252 95.5504 10.3161 95.5504 10.1416V4.03242C95.5504 3.84696 95.6475 3.74878 95.8028 3.74878H99.3747V3.7706Z" fill="white"/>
<path d="M105.296 5.70152C105.296 5.51606 105.208 5.41788 105.043 5.41788H103.849C103.684 5.41788 103.597 5.30879 103.597 5.13424V4.06513C103.597 3.87968 103.694 3.78149 103.849 3.78149H108.198C108.372 3.78149 108.45 3.87968 108.45 4.06513V5.13424C108.45 5.31969 108.363 5.41788 108.198 5.41788H107.004C106.839 5.41788 106.751 5.51606 106.751 5.70152V10.1743C106.751 10.3598 106.664 10.4579 106.499 10.4579H105.548C105.383 10.4579 105.296 10.3489 105.296 10.1743V5.70152Z" fill="white"/>
<path d="M115.167 6.42144C115.167 5.69052 115.128 5.23233 114.497 5.23233C113.866 5.23233 113.827 5.67961 113.827 6.42144V7.79601C113.827 8.52693 113.866 8.98511 114.497 8.98511C115.128 8.98511 115.167 8.53784 115.167 7.79601V6.42144ZM116.632 8.30874C116.632 8.94147 116.516 10.6324 114.497 10.6324C112.488 10.6324 112.362 8.94147 112.362 8.30874V5.91962C112.362 5.28688 112.478 3.59595 114.497 3.59595C116.506 3.59595 116.632 5.28688 116.632 5.91962V8.30874Z" fill="white"/>
</svg>
