<svg width="173" height="64" viewBox="0 0 173 64" fill="none" xmlns="http://www.w3.org/2000/svg">
<path d="M5.57406 12.4872C4.72025 13.8419 4.78303 16.5656 6.21441 16.1422C6.35252 16.0999 6.49064 16.0717 6.62876 16.0434C8.77583 15.5918 10.6216 16.6361 11.8269 18.9647C13.07 21.3637 14.0619 22.6621 14.9157 23.0149C15.6063 23.2971 16.3596 23.0572 17.7534 22.5492C18.8332 22.154 20.1767 21.6742 21.8717 21.4343C25.1488 20.9827 27.5094 22.5774 29.0412 24.4825C28.4511 23.0431 27.3587 21.5472 25.7264 20.5593C22.4493 18.5836 25.7264 13.1363 25.7766 11.5699C25.8269 10.0175 25.0484 10.8643 24.2197 8.945C23.391 7.02574 28.4887 7.39266 28.7775 10.0034C29.0663 12.6283 27.7354 14.8157 29.0286 16.2128C30.3219 17.6099 30.9497 15.6483 34.8672 15.6342C38.7846 15.606 45.7909 23.4665 41.2205 32.1737C37.2026 39.8225 30.3596 37.6351 29.3049 41.1067C28.9156 42.3768 28.9659 46.5399 26.1031 48.5156C22.8762 50.7312 16.6233 52.213 12.8816 45.1005C9.13996 37.9879 12.9444 33.4297 16.2718 31.8632C17.3013 31.3834 17.9417 31.5951 18.6323 31.1999C21.7964 26.6981 23.4789 31.0306 25.2618 31.9479C27.1452 32.9075 27.0699 31.0447 26.2035 29.2101C25.3372 27.3755 25.7013 30.2403 23.8681 29.323C22.374 28.5751 24.2825 25.4281 25.7892 24.7224C24.8475 24.1156 23.6421 23.7346 22.1354 23.9463C20.6412 24.158 19.461 24.5813 18.4314 24.9623C15.5561 26.0067 13.07 26.9239 10.3077 22.9443C10.3077 22.9443 8.77583 20.8416 7.00544 21.2932C6.6162 21.392 6.00096 21.8577 5.26016 22.5774C0.790225 26.9663 -0.716497 34.0788 1.34268 40.3305C2.2216 43.0119 3.4772 45.5944 5.10948 47.9793C7.244 51.0981 9.81798 53.596 12.6682 55.4588C16.9121 58.2248 21.3193 60.257 26.1659 60.0876C31.3892 59.89 37.0394 57.2228 41.5093 53.3702C44.1335 51.1122 46.5694 46.6669 48.1514 43.7033C51.2904 37.8327 52.0563 32.6535 51.0142 25.9361C50.2985 21.3355 48.5909 16.8478 45.8662 12.8541C42.5263 7.97126 37.6923 3.76582 32.921 1.94535C25.2116 -1.0041 16.9372 1.02805 9.90587 7.0963C7.77135 8.91677 7.05566 10.1163 5.57406 12.4872Z" fill="#B179B1"/>
<path d="M63.2187 41.2054C65.6043 42.7437 68.1281 42.8425 70.9029 42.7578C70.9029 41.5159 70.9406 40.9514 70.8653 39.7237C66.0814 39.5402 60.1299 36.2662 61.3855 30.7906C62.3774 26.4582 67.0859 23.9462 71.1289 22.8596C70.7271 21.9705 70.6016 20.898 70.3756 19.8678C65.2779 20.7286 59.929 23.0995 58.0205 28.1658C56.2752 32.8087 59.138 38.5806 63.2187 41.2054Z" fill="#76B7BA"/>
<path d="M87.7907 48.4874L86.1459 46.9773C85.5809 46.4552 84.7019 46.4693 84.1746 47.0056L82.7934 48.4168C82.2661 48.953 81.3369 49.0095 80.7091 48.5297L79.4535 47.5701C78.8257 47.0902 77.8213 47.0902 77.1935 47.5559L75.5612 48.7555C74.9334 49.2212 73.9791 49.1647 73.4392 48.6426L72.0957 47.3443C71.5433 46.8221 70.6392 46.7939 70.0742 47.3019L68.6931 48.5297C68.1155 49.0377 67.2366 48.9954 66.7218 48.4591L65.102 46.7515C64.5873 46.2012 63.746 46.2012 63.2312 46.7374L60.9586 49.1083C60.4438 49.6446 60.3559 50.2796 60.7702 50.5336C61.1846 50.7735 61.9379 50.5477 62.4653 49.9974L63.2438 49.193C63.7586 48.6567 64.5998 48.6567 65.1146 49.2071L66.6088 50.7876C67.1236 51.338 68.015 51.3662 68.5801 50.8582L70.024 49.574C70.6016 49.0659 71.5056 49.0942 72.0455 49.6163L73.2634 50.8018C73.8159 51.3239 74.7576 51.3804 75.398 50.9147L77.1935 49.5881C77.8213 49.1224 78.8383 49.1365 79.4535 49.6022L80.9352 50.7312C81.563 51.211 82.4921 51.1546 83.0194 50.6183L84.275 49.3482C84.8024 48.8119 85.6813 48.7978 86.2463 49.32L86.3844 49.447C86.9495 49.9691 87.7279 50.1667 88.1172 49.9127C88.4939 49.6446 88.3557 49.0095 87.7907 48.4874Z" fill="#76B7BA"/>
<path d="M92.2481 46.8222C91.4696 47.5561 91.4696 47.9935 91.4696 48.6709C91.4696 50.8865 93.9431 52.1708 95.7889 50.6608C98.3503 48.5439 94.6965 45.4251 92.2481 46.8222Z" fill="#76B7BA"/>
<path d="M171.464 47.7819L101.54 47.4432C100.686 47.4432 99.9952 47.6266 99.9952 47.8524L99.9449 50.4208C99.9449 50.6466 100.623 50.8301 101.477 50.8442L171.401 51.1829C172.255 51.1829 172.945 50.9994 172.945 50.7736L172.996 48.2052C172.996 47.9794 172.318 47.796 171.464 47.7819Z" fill="#76B7BA"/>
<path d="M162.624 29.6055C162.876 28.7446 163.014 27.5451 163.353 26.7125C163.817 27.2628 164.232 28.1096 164.307 28.2648C164.646 28.9704 164.947 29.676 165.261 30.3957C165.462 30.8473 165.676 31.2284 165.839 31.6799C165.902 31.8352 165.964 31.9904 166.002 32.1457C166.04 32.2727 166.153 32.4561 166.065 32.4561L161.946 32.4985C162.172 31.6094 162.348 30.6074 162.624 29.6055ZM161.582 36.8591C161.582 36.8591 166.554 36.8591 166.605 37.0426C166.667 37.2966 168.086 41.3609 168.187 41.5726L172.87 41.5162C173.209 41.5162 172.795 40.8529 172.644 40.359C172.468 39.7804 172.23 39.2018 172.016 38.609C171.401 36.9156 170.572 35.4902 169.832 33.8109C168.651 31.1296 167.546 28.4483 166.253 25.8093C165.952 25.2025 164.42 22.0413 162.675 19.9668C161.406 23.128 160.063 26.3597 159.146 29.6055C158.079 33.3734 156.434 38.3691 155.643 41.6714L160.239 41.6149C160.465 40.8811 161.394 37.5083 161.582 36.8591Z" fill="#76B7BA"/>
<path d="M140.337 42.0524C140.337 42.0524 140.35 35.4055 140.287 33.0629C141.719 33.2463 143.175 33.0629 144.544 33.0064C145.787 32.95 147.356 33.0064 148.675 33.1052C148.675 33.3169 148.675 33.5427 148.675 33.7544C148.675 34.1636 148.675 34.5588 148.675 34.968C148.675 36.2522 148.65 37.5223 148.612 38.7783C148.599 39.0324 148.599 39.3005 148.587 39.5545C148.549 40.4295 148.65 41.3185 148.587 42.1511C150.37 42.3628 152.278 41.9395 153.973 41.9395L153.961 39.5545V38.7783L153.948 34.968V33.7544L153.936 29.6054V28.8151L153.923 24.398V23.142L153.91 21.3074C152.128 21.3074 150.382 21.3639 148.624 21.5614C148.612 22.0836 148.612 22.6199 148.612 23.1561C148.612 23.5654 148.612 23.9887 148.612 24.4121C148.612 25.8233 148.624 27.2769 148.65 28.7304C147.419 28.6458 146.189 28.6599 144.958 28.7022C143.665 28.7587 142.384 28.8292 141.091 28.8433C140.789 28.8433 140.488 28.8574 140.187 28.8716C140.137 25.4987 140.111 21.8578 139.798 19.8821L136.558 19.6281C136.558 26.2467 137.362 34.7422 137.349 42.01C138.68 42.3205 140.337 42.0524 140.337 42.0524Z" fill="#76B7BA"/>
<path d="M76.7916 42.6732C76.7916 42.6732 76.7916 42.6027 76.7916 42.4616C77.6831 42.4616 78.2983 42.4616 79.1521 42.4192C80.9351 42.3345 82.718 42.3487 84.501 42.2217C84.5638 41.1632 84.6014 40.2742 84.6014 38.5807L76.7916 38.4396C76.7916 36.4074 76.7665 34.2059 76.7288 33.1899V33.1757C77.2687 33.0911 77.8086 32.9641 78.336 32.9358C79.1521 32.8935 79.9683 32.8653 80.7844 32.9499C80.8723 32.1738 80.9602 31.3411 81.023 30.4803C80.2068 30.3815 79.3781 30.3956 78.562 30.438C77.9342 30.4662 77.2938 30.5085 76.6535 30.5226C76.6158 28.6175 76.6033 26.5571 76.553 24.6802C77.997 24.7366 79.4535 24.3979 80.8346 24.3556C82.2409 24.2992 83.6472 24.2851 85.0409 24.3697C85.1916 23.4807 85.3297 22.5351 85.4552 21.5473C84.049 21.4344 82.6301 21.4485 81.2239 21.4908C79.9557 21.5332 78.6876 21.5896 77.4194 21.5896C77.0804 21.5896 76.7414 21.6037 76.4024 21.6037C76.3521 20.9828 76.3019 20.4183 76.2391 19.9526L73.0499 19.6986C73.0499 26.4724 73.8409 35.1797 73.8284 42.6168C75.1719 42.9273 76.7916 42.6732 76.7916 42.6732Z" fill="#76B7BA"/>
<path d="M134.072 20.1784L129.213 19.9384C129.213 25.0188 129.941 31.2 130.255 37.0848C128.924 34.9538 127.217 32.2584 126.564 31.327C123.701 27.2768 121.303 23.0855 119.871 20.5594C119.859 20.4324 119.846 20.3054 119.834 20.1925L117.36 19.9526C117.36 20.884 117.373 21.8577 117.398 22.8597L117.36 22.8879C117.373 22.902 117.385 22.9161 117.398 22.9302C117.523 28.9138 117.975 35.9276 117.963 42.0523C118.992 42.3627 120.261 42.1087 120.261 42.1087C120.261 42.1087 120.273 35.0244 120.21 32.9781C120.148 31.0306 120.135 28.5892 120.11 26.2748C123.6 31.0024 127.279 37.3247 130.381 42.0099C130.393 42.0099 130.406 41.9958 130.406 41.9958C130.406 42.024 130.406 42.0382 130.406 42.0664C132.44 42.3768 134.913 42.1228 134.913 42.1228C134.913 42.1228 134.939 35.0385 134.813 32.9922C134.549 28.9985 134.725 22.9444 134.072 20.1784Z" fill="#76B7BA"/>
<path d="M94.1942 35.9839H95.9144V39.3567C92.1852 38.9898 88.77 37.5645 89.1341 30.7624C89.3727 26.4441 94.6964 23.5511 98.4381 23.2829C98.4381 21.4484 98.4381 21.4484 98.4381 19.6843C91.3189 20.2206 87.8032 23.2688 86.0705 28.2081C84.4884 32.724 86.0077 39.8083 90.1512 41.5724C92.5619 42.5884 95.2363 42.5179 97.7601 42.4332C97.7601 42.4332 97.7978 40.6692 97.7224 39.4696V35.9839H99.656V34.3046L94.1691 34.7562V35.9839H94.1942Z" fill="#76B7BA"/>
<path d="M112.099 24.5392C113.669 26.91 113.681 28.3071 113.669 30.4804C113.618 37.5647 108.533 41.5867 104.792 36.6615C99.5682 29.803 107.089 19.9668 112.099 24.5392ZM116.18 30.184C116.205 26.9806 116.18 24.9202 113.869 21.4486C106.512 14.7312 95.4373 29.1962 103.122 39.2864C108.634 46.5119 116.117 40.5988 116.18 30.184Z" fill="#76B7BA"/>
<path d="M80.1691 61.6541H77.2938L77.3315 59.9183L77.2938 55.8964H80.1817L80.2068 55.9669L80.1566 56.5173L78.9512 56.4891L77.9342 56.5173L77.9216 58.3942L78.8759 58.4225L79.7297 58.3942L79.7799 58.4507L79.7171 59.0152L78.8257 59.001H77.9091V59.8619L77.9342 61.0614H78.9512L80.1817 61.0332L80.2194 61.1038L80.1691 61.6541Z" fill="#4A4A49"/>
<path d="M83.3584 55.4024L83.3082 55.9527L83.2579 55.9951C83.0696 55.8822 82.8687 55.8398 82.6804 55.8398C82.2535 55.8398 82.0274 56.1362 82.0274 56.7148L82.0149 57.5474H82.9817L83.0068 57.6039L82.9691 58.0272H82.0149L82.0023 59.8477L82.04 61.6541H81.4122L81.4624 59.9041L81.4499 58.0272H80.8974L80.8597 57.9708L80.8974 57.5474H81.4373L81.4248 56.8277C81.4248 56.3479 81.5252 55.9668 81.7638 55.7128C81.9898 55.4588 82.3162 55.3318 82.7431 55.3318C82.9315 55.3177 83.1449 55.3459 83.3584 55.4024Z" fill="#4A4A49"/>
<path d="M84.5009 58.2672C84.3251 58.4647 84.1996 58.7329 84.1494 59.0857L85.9072 59.0292L85.9198 58.9163C85.9198 58.6059 85.857 58.366 85.7189 58.2107C85.5807 58.0555 85.405 57.9708 85.1664 57.9708C84.9027 57.9708 84.6767 58.0696 84.5009 58.2672ZM84.1117 59.5937C84.1117 60.0877 84.1996 60.4828 84.3879 60.7509C84.5763 61.0191 84.84 61.1602 85.2041 61.1602C85.5682 61.1602 85.9323 61.0191 86.2713 60.7509L86.3467 60.7933L86.2839 61.4001C85.8946 61.6259 85.5305 61.7388 85.1664 61.7388C84.639 61.7388 84.2373 61.5553 83.9359 61.1743C83.6471 60.7933 83.4965 60.2852 83.4965 59.6361C83.4965 58.9728 83.6471 58.4506 83.961 58.0555C84.2749 57.6745 84.6893 57.4769 85.2166 57.4769C85.6184 57.4769 85.9323 57.618 86.1458 57.8862C86.3718 58.1543 86.4722 58.5353 86.4722 59.0292L86.4597 59.4385L86.3216 59.5514L84.0866 59.5655V59.5937H84.1117Z" fill="#4A4A49"/>
<path d="M89.4731 60.9345L89.5484 60.9909L89.4856 61.4566C89.1969 61.6118 88.9332 61.6965 88.6821 61.7106C88.3807 61.6401 88.1547 61.5131 88.0292 61.3296C87.891 61.1461 87.8283 60.878 87.8283 60.5252L87.8534 59.8902L87.8408 58.0273H87.3386L87.3009 57.9709L87.3386 57.5475H87.8283V56.8843L88.3807 56.6161L88.4435 56.6726L88.4309 57.5475H89.5233L89.561 57.604L89.5233 58.0273H88.4435L88.4058 60.4688C88.4058 60.7087 88.4435 60.878 88.5188 60.9768C88.5942 61.0756 88.7323 61.1179 88.9081 61.1179C89.0713 61.1038 89.2722 61.0474 89.4731 60.9345Z" fill="#4A4A49"/>
<path d="M91.2435 61.6542H90.6157L90.6534 59.9042L90.6157 57.5757L91.2435 57.5193L91.1933 59.8478L91.2435 61.6542ZM91.2184 55.7976C91.2812 55.8682 91.3188 55.9669 91.3188 56.0798C91.3188 56.221 91.2812 56.3197 91.2184 56.4044C91.1556 56.475 91.0552 56.5173 90.9422 56.5173C90.7036 56.5173 90.5906 56.3762 90.5906 56.1081C90.5906 55.9811 90.6282 55.8823 90.691 55.7976C90.7538 55.727 90.8543 55.6847 90.9673 55.6847C91.0677 55.6988 91.143 55.727 91.2184 55.7976Z" fill="#4A4A49"/>
<path d="M93.8175 60.9485H93.8552L94.7843 58.0978L94.9225 57.5333H95.4875L94.144 61.6541H93.466L92.3234 57.5474L92.9135 57.5051L93.0265 58.0555L93.8175 60.9485Z" fill="#4A4A49"/>
<path d="M96.718 60.2146C96.6678 60.2711 96.6427 60.3699 96.6427 60.4969C96.6427 60.6945 96.6929 60.8497 96.7933 60.9626C96.8938 61.0755 97.0193 61.1319 97.1951 61.1319C97.4839 61.1319 97.7852 60.9203 98.0866 60.4969L98.1117 59.7631L96.9566 60.0735C96.8435 60.1018 96.7682 60.1441 96.718 60.2146ZM98.4131 57.7591C98.6139 57.9567 98.7144 58.2107 98.7144 58.5494C98.7144 58.6482 98.7018 59.0151 98.6642 59.6502C98.6265 60.2852 98.614 60.6521 98.614 60.765C98.614 60.892 98.6391 60.9908 98.6642 61.0332C98.7018 61.0896 98.7646 61.1037 98.8525 61.1037C98.9278 61.1037 99.0283 61.0896 99.1287 61.0473L99.1915 61.1037L99.1287 61.513C98.9781 61.6118 98.8274 61.6682 98.6767 61.6964C98.5135 61.6823 98.3754 61.6118 98.2749 61.4989C98.1745 61.386 98.1243 61.2307 98.1243 61.0332H98.074C97.7853 61.3577 97.4965 61.5835 97.2202 61.7105C96.8687 61.7105 96.5799 61.6118 96.379 61.4142C96.1781 61.2166 96.0776 60.9344 96.0776 60.5957C96.0776 60.0876 96.3288 59.7631 96.8184 59.6361L98.1117 59.2974L98.1243 58.7188C98.1243 58.4788 98.074 58.3095 97.961 58.1825C97.848 58.0555 97.6974 57.999 97.4965 57.999C97.1449 57.999 96.7682 58.1966 96.3664 58.5918L96.3036 58.5494L96.2283 58.0414C96.6678 57.6744 97.1323 57.491 97.5969 57.491C97.9359 57.4628 98.2122 57.5616 98.4131 57.7591Z" fill="#4A4A49"/>
<path d="M102.556 58.2813C102.443 58.1402 102.293 58.0696 102.079 58.0696C101.728 58.0696 101.364 58.2813 101 58.7047L100.987 59.8336L101.025 61.64H100.397L100.435 59.8901L100.397 57.5616L101 57.5051L100.987 58.1119H101.037C101.364 57.7874 101.703 57.5757 102.054 57.4769C102.456 57.4769 102.77 57.5757 102.971 57.7874C103.184 57.999 103.285 58.2954 103.272 58.6905L103.26 59.8619L103.297 61.6541H102.657L102.695 58.8599C102.707 58.62 102.657 58.4224 102.556 58.2813Z" fill="#4A4A49"/>
<path d="M105.419 58.366C105.218 58.6341 105.118 59.001 105.118 59.495C105.118 60.003 105.206 60.3981 105.394 60.6804C105.57 60.9626 105.821 61.1038 106.135 61.1038C106.436 61.1038 106.738 60.9203 107.014 60.5534L107.026 59.9042L107.014 58.1966C106.725 58.0414 106.461 57.9709 106.235 57.9709C105.884 57.9709 105.62 58.0979 105.419 58.366ZM107.591 60.7792C107.591 60.9062 107.617 60.9909 107.642 61.0473C107.679 61.1038 107.73 61.1179 107.817 61.1179C107.905 61.1179 107.993 61.1038 108.094 61.0614L108.157 61.1179L108.106 61.5271C107.956 61.6259 107.805 61.6824 107.654 61.7106C107.328 61.6683 107.139 61.4707 107.089 61.0755H107.039C106.738 61.3719 106.449 61.5695 106.173 61.6965C105.645 61.6965 105.244 61.513 104.955 61.1461C104.678 60.7792 104.528 60.2711 104.528 59.5938C104.528 58.9164 104.678 58.3942 104.992 58.0132C105.306 57.6322 105.746 57.4487 106.298 57.4487C106.537 57.4487 106.775 57.4769 107.001 57.5334L106.989 55.3883L107.617 55.3319L107.566 59.8337L107.591 60.7792Z" fill="#4A4A49"/>
<path d="M109.851 58.3519C109.676 58.6059 109.588 58.9869 109.588 59.4808C109.588 60.638 109.927 61.2025 110.605 61.2025C111.295 61.2025 111.634 60.6945 111.634 59.6925C111.634 59.128 111.547 58.6906 111.371 58.3942C111.195 58.0978 110.944 57.9567 110.617 57.9567C110.278 57.9708 110.027 58.0978 109.851 58.3519ZM111.81 58.0132C112.086 58.3801 112.225 58.8881 112.225 59.5514C112.225 60.2429 112.086 60.7792 111.798 61.1602C111.509 61.5412 111.095 61.7247 110.567 61.7247C110.065 61.7247 109.676 61.5412 109.399 61.1743C109.123 60.8074 108.985 60.2994 108.985 59.6361C108.985 58.9446 109.136 58.4083 109.425 58.0273C109.713 57.6463 110.128 57.4628 110.655 57.4628C111.157 57.4628 111.547 57.6463 111.81 58.0132Z" fill="#4A4A49"/>
<path d="M115.514 60.2146C115.464 60.2711 115.439 60.3699 115.439 60.4969C115.439 60.6945 115.489 60.8497 115.59 60.9626C115.69 61.0755 115.816 61.1319 115.991 61.1319C116.28 61.1319 116.582 60.9203 116.883 60.4969L116.908 59.7631L115.753 60.0735C115.64 60.1018 115.564 60.1441 115.514 60.2146ZM117.209 57.7591C117.41 57.9567 117.511 58.2107 117.511 58.5494C117.511 58.6482 117.498 59.0151 117.46 59.6502C117.423 60.2852 117.41 60.6521 117.41 60.765C117.41 60.892 117.435 60.9908 117.46 61.0332C117.498 61.0896 117.561 61.1037 117.649 61.1037C117.724 61.1037 117.825 61.0896 117.925 61.0473L117.988 61.1037L117.925 61.513C117.774 61.6118 117.624 61.6682 117.473 61.6964C117.31 61.6823 117.172 61.6118 117.071 61.4989C116.971 61.386 116.921 61.2307 116.921 61.0332H116.87C116.582 61.3577 116.293 61.5835 116.017 61.7105C115.665 61.7105 115.376 61.6118 115.175 61.4142C114.974 61.2166 114.874 60.9344 114.874 60.5957C114.874 60.0876 115.125 59.7631 115.615 59.6361L116.908 59.2974L116.921 58.7188C116.921 58.4788 116.87 58.3095 116.757 58.1825C116.644 58.0555 116.494 57.999 116.293 57.999C115.941 57.999 115.564 58.1966 115.163 58.5918L115.1 58.5494L115.025 58.0414C115.464 57.6744 115.929 57.491 116.393 57.491C116.732 57.4628 117.008 57.5616 117.209 57.7591Z" fill="#4A4A49"/>
<path d="M121.416 58.366C121.215 58.6341 121.114 59.001 121.114 59.495C121.114 60.003 121.202 60.3981 121.39 60.6804C121.566 60.9626 121.817 61.1038 122.131 61.1038C122.433 61.1038 122.734 60.9203 123.01 60.5534L123.023 59.9042L123.01 58.1966C122.721 58.0414 122.458 57.9709 122.232 57.9709C121.88 57.9709 121.616 58.0979 121.416 58.366ZM123.588 60.7792C123.588 60.9062 123.613 60.9909 123.638 61.0473C123.676 61.1038 123.726 61.1179 123.814 61.1179C123.902 61.1179 123.99 61.1038 124.09 61.0614L124.153 61.1179L124.103 61.5271C123.952 61.6259 123.801 61.6824 123.651 61.7106C123.324 61.6683 123.136 61.4707 123.085 61.0755H123.035C122.734 61.3719 122.445 61.5695 122.169 61.6965C121.642 61.6965 121.24 61.513 120.951 61.1461C120.675 60.7792 120.537 60.2711 120.537 59.5938C120.537 58.9164 120.687 58.3942 121.001 58.0132C121.315 57.6322 121.755 57.4487 122.307 57.4487C122.546 57.4487 122.784 57.4769 123.01 57.5334L122.998 55.3883L123.625 55.3319L123.575 59.8337L123.588 60.7792Z" fill="#4A4A49"/>
<path d="M125.911 61.6542H125.283L125.32 59.9042L125.283 57.5757L125.911 57.5193L125.86 59.8478L125.911 61.6542ZM125.885 55.7976C125.948 55.8682 125.986 55.9669 125.986 56.0798C125.986 56.221 125.948 56.3197 125.885 56.4044C125.823 56.475 125.722 56.5173 125.609 56.5173C125.371 56.5173 125.258 56.3762 125.258 56.1081C125.258 55.9811 125.295 55.8823 125.358 55.7976C125.421 55.727 125.521 55.6847 125.634 55.6847C125.735 55.6988 125.81 55.727 125.885 55.7976Z" fill="#4A4A49"/>
<path d="M129.389 59.5656C129.539 59.3963 129.615 59.1705 129.615 58.86C129.615 58.5778 129.539 58.352 129.401 58.1967C129.263 58.0415 129.062 57.9568 128.799 57.9568C128.535 57.9568 128.321 58.0415 128.171 58.1967C128.02 58.352 127.945 58.5919 127.945 58.8882C127.945 59.1705 128.02 59.3963 128.158 59.5656C128.296 59.7209 128.497 59.8055 128.761 59.8055C129.037 59.8196 129.238 59.735 129.389 59.5656ZM129.677 61.8377C129.577 61.753 129.464 61.6966 129.326 61.6683C129.188 61.626 128.987 61.5978 128.736 61.5554L128.485 61.5131C128.07 61.7954 127.869 62.0635 127.869 62.3034C127.869 62.4727 127.945 62.628 128.095 62.7409C128.246 62.8538 128.46 62.9102 128.736 62.9102C129.05 62.9102 129.301 62.8396 129.514 62.6985C129.728 62.5574 129.828 62.3881 129.828 62.1764C129.828 62.0211 129.778 61.9082 129.677 61.8377ZM130.016 58.0697L130.004 58.1121C130.117 58.3237 130.18 58.5778 130.18 58.8741C130.18 59.3116 130.054 59.6644 129.79 59.9184C129.527 60.1724 129.175 60.2995 128.736 60.2995C128.56 60.2995 128.397 60.2712 128.246 60.2289C128.095 60.3559 128.008 60.4829 128.008 60.5817C128.008 60.7087 128.083 60.7934 128.221 60.8498C128.359 60.9063 128.585 60.9486 128.899 61.0051C129.213 61.0474 129.464 61.1039 129.665 61.1603C129.866 61.2168 130.029 61.3155 130.18 61.4567C130.318 61.5978 130.393 61.7812 130.393 62.0211C130.393 62.2752 130.318 62.501 130.167 62.7126C130.016 62.9243 129.803 63.0937 129.539 63.2066C129.276 63.3336 128.987 63.39 128.673 63.39C128.246 63.39 127.92 63.2771 127.681 63.0654C127.442 62.8397 127.329 62.5574 127.329 62.2187C127.455 61.9365 127.694 61.6683 128.033 61.4425V61.4002C127.631 61.2591 127.43 61.0192 127.43 60.6805C127.543 60.4688 127.706 60.2853 127.92 60.1301V60.0878C127.568 59.8479 127.405 59.4668 127.405 58.9306C127.405 58.479 127.53 58.1262 127.794 57.8722C128.058 57.6181 128.397 57.4911 128.824 57.4911C129.1 57.4911 129.338 57.5476 129.539 57.6464C129.903 57.5617 130.293 57.4629 130.694 57.3359L130.757 57.3923V57.8722C130.594 57.9427 130.343 57.9992 130.016 58.0697Z" fill="#4A4A49"/>
<path d="M133.884 58.2813C133.771 58.1402 133.62 58.0696 133.406 58.0696C133.055 58.0696 132.691 58.2813 132.327 58.7047L132.314 59.8336L132.352 61.64H131.724L131.762 59.8901L131.724 57.5616L132.327 57.5051L132.314 58.1119H132.364C132.691 57.7874 133.03 57.5757 133.381 57.4769C133.783 57.4769 134.097 57.5757 134.298 57.7874C134.511 57.999 134.612 58.2954 134.599 58.6905L134.587 59.8619L134.624 61.6541H133.984L134.022 58.8599C134.034 58.62 133.984 58.4224 133.884 58.2813Z" fill="#4A4A49"/>
<path d="M136.797 61.6542H136.169L136.207 59.9042L136.169 57.5757L136.797 57.5193L136.746 59.8478L136.797 61.6542ZM136.759 55.7976C136.822 55.8682 136.859 55.9669 136.859 56.0798C136.859 56.221 136.822 56.3197 136.759 56.4044C136.696 56.475 136.596 56.5173 136.483 56.5173C136.244 56.5173 136.131 56.3762 136.131 56.1081C136.131 55.9811 136.169 55.8823 136.232 55.7976C136.294 55.727 136.395 55.6847 136.508 55.6847C136.608 55.6988 136.696 55.727 136.759 55.7976Z" fill="#4A4A49"/>
<path d="M138.969 58.366C138.768 58.6341 138.668 59.001 138.668 59.495C138.668 60.003 138.755 60.3981 138.944 60.6804C139.12 60.9626 139.371 61.1038 139.685 61.1038C139.986 61.1038 140.287 60.9203 140.564 60.5534L140.576 59.9042L140.564 58.1966C140.275 58.0414 140.011 57.9709 139.785 57.9709C139.433 57.9709 139.17 58.0979 138.969 58.366ZM141.154 60.7792C141.154 60.9062 141.179 60.9909 141.204 61.0473C141.242 61.1038 141.292 61.1179 141.38 61.1179C141.468 61.1179 141.555 61.1038 141.656 61.0614L141.719 61.1179L141.668 61.5271C141.518 61.6259 141.367 61.6824 141.216 61.7106C140.89 61.6683 140.702 61.4707 140.651 61.0755H140.601C140.3 61.3719 140.011 61.5695 139.735 61.6965C139.207 61.6965 138.806 61.513 138.517 61.1461C138.241 60.7792 138.103 60.2711 138.103 59.5938C138.103 58.9164 138.253 58.3942 138.567 58.0132C138.881 57.6322 139.32 57.4487 139.873 57.4487C140.112 57.4487 140.35 57.4769 140.576 57.5334L140.564 55.3883L141.191 55.3319L141.141 59.8337L141.154 60.7792Z" fill="#4A4A49"/>
<path d="M143.175 60.2146C143.125 60.2711 143.1 60.3699 143.1 60.4969C143.1 60.6945 143.15 60.8497 143.25 60.9626C143.351 61.0755 143.476 61.1319 143.652 61.1319C143.941 61.1319 144.242 60.9203 144.544 60.4969L144.569 59.7631L143.414 60.0735C143.301 60.1018 143.225 60.1441 143.175 60.2146ZM144.87 57.7591C145.071 57.9567 145.172 58.2107 145.172 58.5494C145.172 58.6482 145.159 59.0151 145.121 59.6502C145.084 60.2852 145.071 60.6521 145.071 60.765C145.071 60.892 145.084 60.9908 145.121 61.0332C145.159 61.0896 145.222 61.1037 145.31 61.1037C145.385 61.1037 145.485 61.0896 145.586 61.0473L145.649 61.1037L145.586 61.513C145.435 61.6118 145.285 61.6682 145.134 61.6964C144.971 61.6823 144.833 61.6118 144.732 61.4989C144.632 61.386 144.581 61.2307 144.581 61.0332H144.531C144.242 61.3577 143.954 61.5835 143.677 61.7105C143.326 61.7105 143.037 61.6118 142.836 61.4142C142.635 61.2166 142.535 60.9344 142.535 60.5957C142.535 60.0876 142.786 59.7631 143.276 59.6361L144.569 59.2974L144.581 58.7188C144.581 58.4788 144.531 58.3095 144.418 58.1825C144.305 58.0555 144.155 57.999 143.954 57.999C143.602 57.999 143.225 58.1966 142.824 58.5918L142.761 58.5494L142.685 58.0414C143.125 57.6744 143.59 57.491 144.054 57.491C144.406 57.4628 144.669 57.5616 144.87 57.7591Z" fill="#4A4A49"/>
<path d="M147.432 58.366C147.231 58.6341 147.13 59.001 147.13 59.495C147.13 60.003 147.218 60.3981 147.407 60.6804C147.582 60.9626 147.833 61.1038 148.147 61.1038C148.449 61.1038 148.75 60.9203 149.026 60.5534L149.039 59.9042L149.026 58.1966C148.737 58.0414 148.474 57.9709 148.248 57.9709C147.909 57.9709 147.633 58.0979 147.432 58.366ZM149.616 60.7792C149.616 60.9062 149.642 60.9909 149.667 61.0473C149.704 61.1038 149.755 61.1179 149.842 61.1179C149.93 61.1179 150.018 61.1038 150.119 61.0614L150.181 61.1179L150.131 61.5271C149.981 61.6259 149.83 61.6824 149.679 61.7106C149.353 61.6683 149.164 61.4707 149.114 61.0755H149.064C148.763 61.3719 148.474 61.5695 148.198 61.6965C147.67 61.6965 147.268 61.513 146.98 61.1461C146.703 60.7792 146.553 60.2711 146.553 59.5938C146.553 58.9164 146.703 58.3942 147.017 58.0132C147.331 57.6322 147.771 57.4487 148.323 57.4487C148.562 57.4487 148.8 57.4769 149.026 57.5334L149.014 55.3883L149.642 55.3319L149.591 59.8337L149.616 60.7792Z" fill="#4A4A49"/>
<path d="M151.989 58.2672C151.814 58.4647 151.701 58.7329 151.638 59.0857L153.396 59.0292L153.408 58.9163C153.408 58.6059 153.346 58.366 153.207 58.2107C153.069 58.0555 152.894 57.9708 152.655 57.9708C152.404 57.9708 152.178 58.0696 151.989 58.2672ZM151.613 59.5937C151.613 60.0877 151.701 60.4828 151.889 60.7509C152.077 61.0191 152.341 61.1602 152.705 61.1602C153.069 61.1602 153.433 61.0191 153.772 60.7509L153.848 60.7933L153.785 61.4001C153.396 61.6259 153.032 61.7388 152.668 61.7388C152.14 61.7388 151.738 61.5553 151.437 61.1743C151.148 60.7933 150.998 60.2852 150.998 59.6361C150.998 58.9728 151.148 58.4506 151.462 58.0555C151.776 57.6745 152.19 57.4769 152.718 57.4769C153.12 57.4769 153.433 57.618 153.647 57.8862C153.873 58.1543 153.973 58.5353 153.973 59.0292L153.961 59.4385L153.823 59.5514L151.588 59.5655V59.5937H151.613Z" fill="#4A4A49"/>
<path d="M83.1952 9.28375C83.7226 9.28375 83.9863 9.21319 83.9863 8.43702C83.9863 7.67496 83.7226 7.59029 83.1952 7.59029H82.6051C82.3917 7.59029 82.2786 7.7173 82.2786 7.9572V8.90272C82.2786 9.14263 82.4042 9.26964 82.6051 9.26964H83.1952V9.28375ZM83.1199 5.48757C85.0786 5.48757 85.8697 6.43309 85.8697 8.45113C85.8697 10.4833 85.0786 11.4147 83.1199 11.4147H82.5925C82.3791 11.4147 82.2661 11.5417 82.2661 11.7816V13.7573C82.2661 13.9972 82.1531 14.1242 81.9396 14.1242H80.7091C80.4957 14.1242 80.3827 13.9831 80.3827 13.7573V5.8686C80.3827 5.61458 80.4957 5.50168 80.7091 5.48757H83.1199Z" fill="#878787"/>
<path d="M93.4284 7.6044C93.2275 7.6044 93.0894 7.75963 93.0894 7.98543V8.90272C93.0894 9.12852 93.2275 9.28375 93.4284 9.28375H93.9934C94.5208 9.28375 94.7845 9.21319 94.7845 8.43702C94.7845 7.67496 94.5208 7.59029 93.9934 7.59029H93.4284V7.6044ZM96.9566 13.461C97.1073 13.7855 96.9315 14.1242 96.5925 14.1242H95.3369C95.2239 14.1242 95.1235 14.0678 95.0858 13.9549L93.9432 11.4711C93.9181 11.4288 93.893 11.4147 93.8553 11.4147H93.4158C93.215 11.4147 93.0768 11.5699 93.0768 11.7957V13.7432C93.0768 13.969 92.9387 14.1242 92.7378 14.1242H91.5073C91.3064 14.1242 91.1683 13.969 91.1683 13.7432V5.8686C91.1683 5.6428 91.3064 5.48757 91.5073 5.48757H93.9181C95.8768 5.48757 96.6679 6.43309 96.6679 8.45113C96.6679 9.59422 96.4167 10.3986 95.8266 10.8784C95.7764 10.9208 95.7764 10.9772 95.7889 11.0337L96.9566 13.461Z" fill="#878787"/>
<path d="M105.821 8.91686C105.821 7.97134 105.771 7.37863 104.955 7.37863C104.139 7.37863 104.088 7.95723 104.088 8.91686V10.695C104.088 11.6405 104.139 12.2332 104.955 12.2332C105.771 12.2332 105.821 11.6546 105.821 10.695V8.91686ZM107.704 11.3583C107.704 12.1768 107.554 14.3642 104.942 14.3642C102.343 14.3642 102.18 12.1768 102.18 11.3583V8.2677C102.18 7.44919 102.33 5.2618 104.942 5.2618C107.541 5.2618 107.704 7.44919 107.704 8.2677V11.3583Z" fill="#878787"/>
<path d="M118.038 5.48758C118.239 5.48758 118.377 5.64281 118.377 5.86861V11.3583C118.377 12.1768 118.226 14.3642 115.615 14.3642C113.279 14.3642 112.915 12.6001 112.865 11.6405C112.852 11.4712 112.953 11.33 113.104 11.2877L114.321 10.9772C114.547 10.9208 114.723 11.1042 114.761 11.3583C114.811 11.9086 115.012 12.2191 115.602 12.2191C116.418 12.2191 116.469 11.6405 116.469 10.6809V5.8545C116.469 5.6287 116.607 5.47347 116.808 5.47347H118.038V5.48758Z" fill="#878787"/>
<path d="M128.987 5.48759C129.213 5.48759 129.313 5.61461 129.313 5.85451V7.23751C129.313 7.47742 129.2 7.60442 128.987 7.60442H126.325C126.112 7.60442 125.999 7.73144 125.999 7.97134V8.36648C125.999 8.60639 126.124 8.7334 126.325 8.7334H128.033C128.259 8.7334 128.359 8.86041 128.359 9.10032V10.4833C128.359 10.7232 128.246 10.8502 128.033 10.8502H126.325C126.112 10.8502 125.999 10.9772 125.999 11.2171V11.6123C125.999 11.8522 126.124 11.9792 126.325 11.9792H128.987C129.213 11.9792 129.313 12.1062 129.313 12.3461V13.7291C129.313 13.969 129.2 14.096 128.987 14.096H124.366C124.153 14.096 124.04 13.9549 124.04 13.7291V5.82629C124.04 5.58638 124.165 5.45937 124.366 5.45937H128.987V5.48759Z" fill="#878787"/>
<path d="M136.646 7.98542C136.646 7.74551 136.533 7.6185 136.32 7.6185H134.775C134.562 7.6185 134.449 7.47738 134.449 7.25158V5.86859C134.449 5.62868 134.574 5.50167 134.775 5.50167H140.4C140.626 5.50167 140.727 5.62868 140.727 5.86859V7.25158C140.727 7.49149 140.614 7.6185 140.4 7.6185H138.856C138.642 7.6185 138.529 7.74551 138.529 7.98542V13.7714C138.529 14.0113 138.416 14.1383 138.203 14.1383H136.972C136.759 14.1383 136.646 13.9972 136.646 13.7714V7.98542Z" fill="#878787"/>
<path d="M149.415 8.91686C149.415 7.97134 149.365 7.37863 148.549 7.37863C147.733 7.37863 147.683 7.95723 147.683 8.91686V10.695C147.683 11.6405 147.733 12.2332 148.549 12.2332C149.365 12.2332 149.415 11.6546 149.415 10.695V8.91686ZM151.311 11.3583C151.311 12.1768 151.161 14.3642 148.549 14.3642C145.95 14.3642 145.787 12.1768 145.787 11.3583V8.2677C145.787 7.44919 145.937 5.2618 148.549 5.2618C151.148 5.2618 151.311 7.44919 151.311 8.2677V11.3583Z" fill="#878787"/>
</svg>
