<svg width="160" height="46" viewBox="0 0 160 46" fill="none" xmlns="http://www.w3.org/2000/svg">
<path fill-rule="evenodd" clip-rule="evenodd" d="M28.0498 1.12397C30.0673 1.12397 31.8967 2.08667 33.2132 3.6377C35.3932 1.92622 38.0946 0.918945 41.0182 0.918945C48.1907 0.918945 54.038 7.0161 54.038 14.486C54.038 21.9648 48.1907 28.0531 41.0182 28.0531C38.958 28.0531 37.0089 27.5539 35.282 26.6625V45.2927C31.2726 45.2659 28.007 41.4775 28.007 36.8512V1.12397H28.0498ZM19.0565 1.12397C23.0316 1.12397 26.2887 4.86784 26.2887 9.44962V18.2923V33.9185C22.2793 33.8917 19.0137 30.1033 19.0137 25.4769V18.3012V1.12397H19.0565ZM10.0632 1.12397C14.0383 1.12397 17.2954 4.86784 17.2954 9.44962V18.2923V33.9185C13.286 33.8917 10.0204 30.1033 10.0204 25.4769V18.3012V1.12397H10.0632ZM1.06985 1.12397C5.04502 1.12397 8.29355 4.86784 8.29355 9.44962V18.2923H8.30211V33.9185C4.29274 33.8917 1.01855 30.1033 1.01855 25.4769V18.3012V1.12397H1.06985ZM39.489 15.417L39.4889 15.417C39.1426 15.1146 38.7895 14.8064 38.4364 14.459C37.8466 13.9688 36.3078 12.0077 36.7096 8.83433C35.9659 9.33351 34.2048 11.6155 33.9655 14.2005V15.3415C34.068 16.3755 34.4527 17.4185 35.2905 18.3901C36.3394 19.5868 37.2913 20.1829 38.1072 20.6938C38.987 21.2447 39.7086 21.6966 40.2231 22.6955C40.4881 23.2126 40.6933 23.8633 40.8386 24.7547C41.3943 24.0772 43.2409 21.5367 41.8902 18.2297C41.4371 17.3026 40.8643 16.6608 40.2231 16.0725C39.9836 15.8488 39.738 15.6344 39.489 15.417ZM46.0367 11.8674C46.6606 12.4141 47.2518 12.9322 47.6606 13.6481C48.7292 15.5201 48.0709 18.4884 46.6091 20.0038C45.0874 21.5815 42.8391 21.9381 42.8391 21.9381C43.2409 20.7258 43.3777 19.0767 42.6425 17.597C42.1392 16.5774 41.4786 15.8604 40.6913 15.0059C40.5426 14.8444 40.3893 14.6781 40.2317 14.5039C39.847 14.076 39.4367 13.6035 39.0007 13.0331C37.5303 11.2146 37.7269 7.45291 40.2317 4.76089C40.625 4.34193 41.0695 3.94972 41.5739 3.59316C40.4454 5.58989 40.1804 8.55824 41.7107 9.78837C42.1894 6.36541 43.7196 5.54532 43.7196 5.54532C43.0186 6.95373 43.2751 8.23734 43.9761 9.51204C44.5532 10.5674 45.3167 11.2365 46.0367 11.8674Z" fill="white"/>
<path d="M63.5015 6.0889H65.3394L67.0578 10.6083L68.7846 6.0889H70.614V12.712H69.2377V8.28174L67.5365 12.712H66.4679L64.7752 8.30848V12.712H63.5015V6.0889Z" fill="white"/>
<path d="M71.6399 6.0889H73.0333V12.712H71.6399V6.0889Z" fill="white"/>
<path d="M74.0593 6.0889H75.5724L78.4961 10.2606V6.0889H79.8382V12.712H78.5474L75.4014 8.23717V12.712H74.0593V6.0889Z" fill="white"/>
<path d="M80.8641 6.0889H82.2661V12.712H80.8641V6.0889Z" fill="white"/>
<path d="M83.0098 11.9454L83.7108 10.8935C84.3862 11.366 85.1812 11.5977 85.9933 11.5977C87.2329 11.5977 87.4723 11.3481 87.4723 10.7955C87.4723 10.2517 86.9423 10.1448 85.9591 10.0021C84.2579 9.75254 83.3774 9.43164 83.3774 7.98758C83.3774 6.50786 84.2323 5.98194 86.0275 5.98194C87.3184 5.98194 88.1135 6.29392 88.6007 6.63266L87.8484 7.76473C87.4466 7.4884 86.7029 7.25664 86.0105 7.25664C85.0188 7.25664 84.7794 7.46166 84.7794 7.94301C84.7794 8.47785 85.3009 8.5759 86.3182 8.72744C87.8484 8.9592 88.8657 9.21771 88.8657 10.7153C88.8657 12.0523 88.1647 12.81 86.0446 12.81C84.7794 12.81 83.7279 12.498 83.0098 11.9454Z" fill="white"/>
<path d="M91.0542 7.40817H88.8486V6.0889H94.6618V7.40817H92.4647V12.712H91.0542V7.40817Z" fill="white"/>
<path d="M95.2431 6.08877H100.022V7.41695H96.6536V8.70056H99.9363V9.97526H96.6536V11.4461H100.056V12.7118H95.2431V6.08877ZM97.8761 4.09204H99.5004L97.859 5.73221H96.6622L97.8761 4.09204Z" fill="white"/>
<path d="M103.587 10.5102H102.159V12.712H100.783V6.0889H103.852C105.852 6.0889 106.331 6.9803 106.331 8.255C106.331 9.16422 106.049 10.0111 104.997 10.3587L106.254 12.7209H104.749L103.587 10.5102ZM103.818 9.25337C104.578 9.25337 104.92 9.05725 104.92 8.30848C104.92 7.54188 104.596 7.34578 103.8 7.34578H102.159V9.26228H103.818V9.25337Z" fill="white"/>
<path d="M107.169 6.0889H108.562V12.712H107.169V6.0889Z" fill="white"/>
<path d="M109.408 9.39598C109.408 6.90899 110.751 5.98194 112.768 5.98194C114.794 5.98194 116.136 6.90899 116.136 9.39598C116.136 11.8919 114.786 12.819 112.768 12.819C110.751 12.819 109.408 11.8919 109.408 9.39598ZM114.717 9.42272C114.717 8.1302 114.23 7.31903 112.768 7.31903C111.306 7.31903 110.819 8.12128 110.819 9.42272C110.819 10.7242 111.306 11.5353 112.768 11.5353C114.23 11.5353 114.717 10.7152 114.717 9.42272Z" fill="white"/>
<path d="M118.573 6.0889H121.625C123.582 6.0889 124.163 6.94464 124.163 8.30848C124.163 9.67232 123.616 10.6885 121.556 10.6885H119.94V12.7209H118.573V6.0889ZM121.616 9.43164C122.411 9.43164 122.753 9.14639 122.753 8.37979C122.753 7.58645 122.428 7.34578 121.599 7.34578H119.94V9.44056H121.616V9.43164Z" fill="white"/>
<path d="M124.788 10.1803V6.07986H126.19V9.98418C126.19 10.9647 126.42 11.5352 127.711 11.5352C128.985 11.5352 129.242 11.0093 129.242 9.98418V6.08877H130.609V10.1892C130.609 11.455 130.379 12.8456 127.703 12.8456C125.01 12.8366 124.788 11.455 124.788 10.1803ZM128.01 4.09204H129.635L127.993 5.73221H126.805L128.01 4.09204Z" fill="white"/>
<path d="M131.481 6.0889H134.431C136.123 6.0889 136.841 6.57917 136.841 7.80038C136.841 8.56699 136.576 9.04834 135.995 9.27119C136.739 9.45838 137.012 9.95757 137.012 10.9024C137.012 12.3376 136.123 12.7298 134.414 12.7298H131.481V6.0889ZM134.482 8.73635C135.226 8.73635 135.414 8.47785 135.414 8.01432C135.414 7.5508 135.191 7.33686 134.482 7.33686H132.858V8.73635H134.482ZM134.576 11.4997C135.294 11.4997 135.585 11.2947 135.585 10.7509C135.585 10.2072 135.303 10.0111 134.576 10.0111H132.858V11.5086H134.576V11.4997Z" fill="white"/>
<path d="M137.611 6.0889H139.021V11.4462H142.142V12.712H137.611V6.0889Z" fill="white"/>
<path d="M142.826 6.0889H144.228V12.712H142.826V6.0889Z" fill="white"/>
<path d="M144.903 9.39598C144.903 7.01595 146.143 5.98194 148.254 5.98194C149.408 5.98194 150.152 6.30284 150.75 6.93573L149.784 7.94301C149.4 7.5508 148.947 7.31903 148.246 7.31903C146.895 7.31903 146.314 8.03215 146.314 9.41382C146.314 10.7509 146.792 11.5086 148.254 11.5086C149.075 11.5086 149.468 11.2234 149.87 10.84L150.793 11.7849C150.289 12.3287 149.613 12.81 148.169 12.81C145.792 12.81 144.903 11.5888 144.903 9.39598Z" fill="white"/>
<path d="M151.032 9.39598C151.032 6.90899 152.366 5.98194 154.392 5.98194C156.418 5.98194 157.76 6.90899 157.76 9.39598C157.76 11.8919 156.418 12.819 154.392 12.819C152.374 12.819 151.032 11.8919 151.032 9.39598ZM156.341 9.42272C156.341 8.1302 155.854 7.31903 154.392 7.31903C152.93 7.31903 152.443 8.12128 152.443 9.42272C152.443 10.7242 152.93 11.5353 154.392 11.5353C155.854 11.5353 156.341 10.7152 156.341 9.42272Z" fill="white"/>
<path d="M63.5015 16.8124H65.784C68.2888 16.8124 69.3232 17.4899 69.3232 20.1195C69.3232 22.7045 68.2546 23.4355 65.7498 23.4355H63.5015V16.8124ZM65.8267 22.1608C67.5621 22.1608 67.9126 21.617 67.9126 20.1195C67.9126 18.6219 67.622 18.1227 65.8011 18.1227H64.912V22.1519H65.8267V22.1608Z" fill="white"/>
<path d="M69.725 20.1195C69.725 17.6325 71.0671 16.7054 73.0847 16.7054C75.1107 16.7054 76.4529 17.6325 76.4529 20.1195C76.4529 22.6154 75.1107 23.5424 73.0847 23.5424C71.0671 23.5513 69.725 22.6154 69.725 20.1195ZM75.0338 20.1462C75.0338 18.8537 74.5465 18.0425 73.0847 18.0425C71.6228 18.0425 71.1355 18.8448 71.1355 20.1462C71.1355 21.4477 71.6228 22.2588 73.0847 22.2588C74.5465 22.2588 75.0338 21.4477 75.0338 20.1462Z" fill="white"/>
<path d="M78.8893 16.8124H83.6595V18.1406H80.2913V19.4242H83.574V20.7078H80.2913V22.1697H83.6937V23.4444H78.8893V16.8124Z" fill="white"/>
<path d="M84.2237 22.6689L84.9247 21.617C85.6001 22.0895 86.3866 22.3212 87.2072 22.3212C88.4468 22.3212 88.6862 22.0716 88.6862 21.519C88.6862 20.9752 88.1561 20.8682 87.173 20.7256C85.4718 20.476 84.5913 20.1551 84.5913 18.7111C84.5913 17.2313 85.4462 16.7054 87.2414 16.7054C88.5323 16.7054 89.3273 17.0174 89.8146 17.3561L89.0623 18.4882C88.6605 18.2119 87.9168 17.9801 87.2243 17.9801C86.2327 17.9801 85.9933 18.1851 85.9933 18.6665C85.9933 19.2013 86.5148 19.2994 87.5321 19.4509C89.0623 19.6827 90.0796 19.9412 90.0796 21.4387C90.0796 22.7758 89.3786 23.5335 87.2585 23.5335C85.9933 23.5424 84.9504 23.2304 84.2237 22.6689Z" fill="white"/>
<path d="M92.439 18.1406H90.242V16.8124H96.0552V18.1406H93.8581V23.4444H92.439V18.1406Z" fill="white"/>
<path d="M97.6196 16.7678H99.0387L101.603 23.4355H100.142L99.7312 22.348H96.8502L96.4399 23.4355H95.0635L97.6196 16.7678ZM99.2952 21.1446L98.3035 18.5061L97.3119 21.1446H99.2952Z" fill="white"/>
<path d="M102.193 16.8124H104.476C106.98 16.8124 108.015 17.4899 108.015 20.1195C108.015 22.7045 106.946 23.4355 104.441 23.4355H102.193V16.8124ZM104.518 22.1608C106.254 22.1608 106.604 21.617 106.604 20.1195C106.604 18.6219 106.314 18.1227 104.493 18.1227H103.604V22.1519H104.518V22.1608Z" fill="white"/>
<path d="M108.417 20.1195C108.417 17.6325 109.759 16.7054 111.776 16.7054C113.794 16.7054 115.145 17.6325 115.145 20.1195C115.145 22.6154 113.794 23.5424 111.776 23.5424C109.759 23.5424 108.417 22.6154 108.417 20.1195ZM113.725 20.1462C113.725 18.8537 113.238 18.0425 111.776 18.0425C110.315 18.0425 109.827 18.8448 109.827 20.1462C109.827 21.4477 110.315 22.2588 111.776 22.2588C113.238 22.2588 113.725 21.4477 113.725 20.1462Z" fill="white"/>
<path d="M117.572 16.8124H119.855C122.36 16.8124 123.394 17.4899 123.394 20.1195C123.394 22.7045 122.326 23.4355 119.821 23.4355H117.572V16.8124ZM119.898 22.1608C121.633 22.1608 121.984 21.617 121.984 20.1195C121.984 18.6219 121.693 18.1227 119.872 18.1227H118.983V22.1519H119.898V22.1608Z" fill="white"/>
<path d="M125.762 16.7678H127.19L129.754 23.4355H128.293L127.882 22.348H125.001L124.591 23.4355H123.215L125.762 16.7678ZM127.438 21.1446L126.446 18.5061L125.454 21.1446H127.438Z" fill="white"/>
<path d="M132.003 16.8124H134.952C136.645 16.8124 137.363 17.3027 137.363 18.5239C137.363 19.2905 137.098 19.7718 136.516 19.9947C137.26 20.1819 137.534 20.6811 137.534 21.6259C137.534 23.0611 136.645 23.4533 134.935 23.4533H132.003V16.8124ZM135.012 19.4598C135.756 19.4598 135.944 19.2013 135.944 18.7378C135.944 18.2743 135.721 18.0603 135.012 18.0603H133.388V19.4598H135.012ZM135.106 22.2232C135.824 22.2232 136.115 22.0182 136.115 21.4744C136.115 20.9306 135.833 20.7345 135.106 20.7345H133.388V22.2321H135.106V22.2232Z" fill="white"/>
<path d="M140.081 16.7678H141.509L144.074 23.4355H142.612L142.202 22.348H139.321L138.91 23.4355H137.542L140.081 16.7678ZM141.757 21.1446L140.765 18.5061L139.774 21.1446H141.757Z" fill="white"/>
<path d="M144.655 16.8124H146.057V19.3529H148.972V16.8124H150.374V23.4444H148.972V20.7256H146.057V23.4444H144.655V16.8124Z" fill="white"/>
<path d="M151.391 16.8124H152.793V23.4444H151.391V16.8124Z" fill="white"/>
<path d="M156.016 16.7678H157.435L160 23.4355H158.538L158.128 22.348H155.247L154.837 23.4355H153.46L156.016 16.7678ZM157.692 21.1446L156.7 18.5061L155.709 21.1446H157.692Z" fill="white"/>
</svg>
