<svg width="172" height="49" viewBox="0 0 172 49" fill="none" xmlns="http://www.w3.org/2000/svg">
<path d="M35.234 2.71321L35.2891 2.6749L35.528 2.50246C38.6517 0.385282 42.0879 -0.342795 45.772 0.145784C53.2507 1.54446 58.2854 8.01094 58.0925 15.924C57.5137 23.8083 51.8633 29.7 44.302 30.3035C42.1246 30.361 40.085 30.0545 38.0638 29.1923L37.9535 29.1444V48.8599L36.9521 48.8216C34.7379 48.6109 32.9555 47.6337 31.4396 45.9572L31.1639 45.6219C29.0876 42.8341 28.9957 40.1805 28.9957 36.7796C29.0049 24.6034 29.0049 12.4177 29.0049 0.241582C31.3661 0.0308227 33.5435 0.998398 35.234 2.71321ZM19.9552 0.203261C22.3072 0.270321 24.2458 1.25706 25.8536 3.02935C27.4522 4.95493 28.224 7.19664 28.2791 9.73533C28.2791 18.7118 28.2883 27.669 28.2883 36.6455L27.2868 36.6072C25.532 36.4443 24.0712 35.8024 22.6839 34.6624L22.3715 34.375C20.3778 32.3728 19.404 29.8437 19.3397 26.9793V18.6639H19.3488V0.25116L19.8909 0.203261H19.9277H19.9368H19.9552ZM10.29 0.203261C12.495 0.270321 14.3141 1.12294 15.9035 2.71321L16.1883 3.02935C17.787 4.95493 18.5587 7.19664 18.6138 9.73533V18.6543V36.6455L17.6124 36.6072L17.1806 36.5688L16.758 36.5018C15.1777 36.1665 13.9007 35.4767 12.6879 34.375C10.6942 32.3728 9.72035 29.8437 9.65604 26.9793V18.6639H9.66524V0.25116L10.2073 0.203261H10.244H10.2532H10.29ZM0.624756 0.203261C3.13294 0.279901 5.17255 1.39118 6.79873 3.35507L7.06518 3.69995C8.30549 5.52015 8.91186 7.49362 8.9578 9.72575V18.6447V36.6359L7.95637 36.5976L7.52455 36.5592L7.10192 36.4922C5.53086 36.1569 4.24462 35.4671 3.03187 34.3654C1.03819 32.3632 0.0643124 29.8341 0 26.9697V18.6543V0.25116L0.542058 0.203261H0.578816H0.587998H0.624756Z" fill="black"/>
<path d="M29.6114 0.816464C31.7796 0.816464 33.7458 1.8511 35.1606 3.51801C37.5034 1.67866 40.4067 0.596125 43.5488 0.596125C51.2571 0.596125 57.5413 7.14882 57.5413 15.1768C57.5413 23.2144 51.2571 29.7576 43.5488 29.7576C41.3346 29.7576 39.2399 29.2211 37.384 28.2631V48.2852C33.075 48.2565 29.5654 44.185 29.5654 39.213C29.5654 26.4141 29.5654 13.6153 29.5654 0.816464H29.6114ZM19.9461 0.816464C24.2183 0.816464 27.7188 4.84005 27.7188 9.76416V19.2675V36.0612C23.4098 36.0324 19.9002 31.9609 19.9002 26.9889V19.2771V0.816464H19.9461ZM10.2809 0.816464C14.5531 0.816464 18.0535 4.84005 18.0535 9.76416V19.2675V36.0612C13.7446 36.0324 10.235 31.9609 10.235 26.9889V19.2771V0.816464H10.2809ZM0.61567 0.816464C4.88785 0.816464 8.37909 4.84005 8.37909 9.76416V19.2675H8.38829V36.0612C4.07936 36.0324 0.560547 31.9609 0.560547 26.9889V19.2771V0.816464H0.61567Z" fill="#DADADA"/>
<path d="M45.2116 23.7986C44.7431 25.2548 44.0724 26.1266 43.1077 27.1995C42.7126 24.8429 42.244 23.5017 40.1401 22.3138C38.6977 21.4132 37.2461 20.3307 36.3273 18.8362C35.1054 16.8436 35.234 14.6785 35.8496 12.8583C36.6121 10.5783 37.8341 9.08381 39.6073 7.96296C39.2765 9.25625 39.2489 10.9136 39.6991 12.3889C40.3147 14.5061 42.2349 15.6269 43.6314 17.016C42.6575 15.8377 41.4999 14.8318 40.6914 13.6056C39.1846 11.2776 39.8094 7.9917 41.1875 5.77872C42.143 4.23635 43.4109 3.23045 44.8257 2.76103C43.9897 4.41837 43.1812 6.96664 43.9805 8.806C44.5226 6.6026 45.377 5.41468 46.9848 4.78241C46.4703 6.4589 46.3233 7.95338 47.1961 9.54365C47.7566 10.5687 48.5283 11.2393 49.2633 11.8716C51.1192 13.481 52.1298 15.1863 51.6888 17.8303C51.1008 21.4228 48.4089 23.0802 45.2116 23.7986Z" fill="white"/>
<path d="M42.6942 16.8818C42.0787 16.307 41.4263 15.7897 40.774 15.1478C40.1401 14.6209 38.4864 12.5133 38.9182 9.10288C38.1189 9.63936 36.2262 12.0918 35.969 14.87V16.0963C36.0792 17.2075 36.4927 18.3284 37.393 19.3726C39.7359 22.0454 41.6285 21.9305 42.6942 23.9997C42.979 24.5554 43.1995 25.2547 43.3557 26.2127C43.9529 25.4846 45.9374 22.7543 44.4858 19.2002C43.9988 18.2039 43.3833 17.5141 42.6942 16.8818Z" fill="#E63027"/>
<path d="M50.6874 14.2764C49.741 12.619 47.8852 11.9484 46.7276 9.83126C45.9742 8.46132 45.6986 7.08181 46.4519 5.56817C46.4519 5.56817 44.8074 6.44953 44.2929 10.1282C42.6483 8.8062 42.9331 5.61607 44.1459 3.47016C43.6038 3.85335 43.1261 4.27487 42.7034 4.72513C40.0115 7.61828 39.8002 11.661 41.3804 13.6153C41.849 14.2285 42.29 14.7362 42.7034 15.196C43.7692 16.3744 44.6512 17.2174 45.2943 18.5203C46.0844 20.1106 45.9374 21.8829 45.5056 23.1857C45.5056 23.1857 47.9219 22.8025 49.5573 21.1069C51.1284 19.4783 51.8358 16.2882 50.6874 14.2764Z" fill="#E63027"/>
<path d="M67.7117 6.15241H69.687L71.5337 11.0095L73.3895 6.15241H75.3557V13.2703H73.8765V8.50908L72.0482 13.2703H70.8997L69.0806 8.53782V13.2703H67.7117V6.15241Z" fill="black"/>
<path d="M76.4583 6.15241H77.9558V13.2703H76.4583V6.15241Z" fill="black"/>
<path d="M79.0583 6.15241H80.6845L83.8267 10.6358V6.15241H85.2691V13.2703H83.8818L80.5008 8.46119V13.2703H79.0583V6.15241Z" fill="black"/>
<path d="M86.3716 6.15241H87.8783V13.2703H86.3716V6.15241Z" fill="black"/>
<path d="M88.6777 12.4464L89.4311 11.316C90.1569 11.8237 91.0113 12.0728 91.8842 12.0728C93.2163 12.0728 93.4736 11.8046 93.4736 11.2106C93.4736 10.6262 92.904 10.5113 91.8474 10.358C90.0191 10.0898 89.0728 9.7449 89.0728 8.19294C89.0728 6.60267 89.9915 6.03745 91.9209 6.03745C93.3082 6.03745 94.1627 6.37274 94.6864 6.73678L93.8779 7.95344C93.446 7.65646 92.6467 7.40738 91.9026 7.40738C90.8368 7.40738 90.5796 7.62772 90.5796 8.14504C90.5796 8.71984 91.14 8.82521 92.2333 8.98807C93.8778 9.23715 94.9712 9.51498 94.9712 11.1244C94.9712 12.5614 94.2178 13.3757 91.9393 13.3757C90.5795 13.3757 89.4495 13.0404 88.6777 12.4464Z" fill="black"/>
<path d="M97.323 7.57025H94.9526V6.15241H101.2V7.57025H98.839V13.2703H97.323V7.57025Z" fill="black"/>
<path d="M101.825 6.15225H106.961V7.57966H103.341V8.95918H106.869V10.3291H103.341V11.9098H106.998V13.2702H101.825V6.15225ZM104.655 4.00634H106.4L104.636 5.76905H103.35L104.655 4.00634Z" fill="black"/>
<path d="M110.792 10.9041H109.258V13.2703H107.779V6.15241H111.077C113.227 6.15241 113.741 7.11041 113.741 8.48034C113.741 9.4575 113.438 10.3676 112.308 10.7412L113.659 13.2799H112.042L110.792 10.9041ZM111.04 9.5533C111.858 9.5533 112.225 9.34254 112.225 8.53782C112.225 7.71394 111.876 7.50319 111.022 7.50319H109.258V9.56289H111.04V9.5533Z" fill="black"/>
<path d="M114.641 6.15241H116.139V13.2703H114.641V6.15241Z" fill="black"/>
<path d="M117.049 9.70657C117.049 7.03376 118.491 6.03745 120.659 6.03745C122.837 6.03745 124.279 7.03376 124.279 9.70657C124.279 12.389 122.828 13.3853 120.659 13.3853C118.491 13.3853 117.049 12.389 117.049 9.70657ZM122.754 9.73531C122.754 8.34622 122.23 7.47444 120.659 7.47444C119.088 7.47444 118.565 8.33663 118.565 9.73531C118.565 11.134 119.088 12.0058 120.659 12.0058C122.23 12.0058 122.754 11.1244 122.754 9.73531Z" fill="black"/>
<path d="M126.897 6.15241H130.177C132.281 6.15241 132.906 7.07209 132.906 8.53782C132.906 10.0036 132.318 11.0957 130.104 11.0957H128.367V13.2799H126.897V6.15241ZM130.168 9.7449C131.023 9.7449 131.39 9.43834 131.39 8.61446C131.39 7.76185 131.041 7.50319 130.15 7.50319H128.367V9.75448H130.168V9.7449Z" fill="black"/>
<path d="M133.577 10.5495V6.14267H135.084V10.3387C135.084 11.3925 135.332 12.0056 136.719 12.0056C138.088 12.0056 138.364 11.4404 138.364 10.3387V6.15225H139.834V10.559C139.834 11.9194 139.586 13.4139 136.71 13.4139C133.816 13.4043 133.577 11.9194 133.577 10.5495ZM137.041 4.00634H138.786L137.022 5.76905H135.745L137.041 4.00634Z" fill="black"/>
<path d="M140.771 6.15241H143.94C145.76 6.15241 146.531 6.67931 146.531 7.99176C146.531 8.81564 146.247 9.33296 145.622 9.57246C146.421 9.77364 146.715 10.3101 146.715 11.3256C146.715 12.868 145.76 13.2895 143.922 13.2895H140.771V6.15241ZM143.996 8.99766C144.795 8.99766 144.997 8.71985 144.997 8.22169C144.997 7.72353 144.758 7.49361 143.996 7.49361H142.25V8.99766H143.996ZM144.097 11.9675C144.868 11.9675 145.181 11.7471 145.181 11.1627C145.181 10.5784 144.878 10.3676 144.097 10.3676H142.25V11.977H144.097V11.9675Z" fill="black"/>
<path d="M147.358 6.15241H148.874V11.91H152.228V13.2703H147.358V6.15241Z" fill="black"/>
<path d="M152.962 6.15241H154.469V13.2703H152.962V6.15241Z" fill="black"/>
<path d="M155.195 9.70657C155.195 7.14872 156.527 6.03745 158.797 6.03745C160.037 6.03745 160.836 6.38233 161.479 7.06251L160.441 8.14504C160.028 7.72352 159.541 7.47444 158.787 7.47444C157.336 7.47444 156.711 8.24084 156.711 9.72574C156.711 11.1627 157.226 11.977 158.797 11.977C159.679 11.977 160.101 11.6705 160.533 11.2585L161.525 12.274C160.983 12.8584 160.257 13.3757 158.705 13.3757C156.151 13.3757 155.195 12.0632 155.195 9.70657Z" fill="black"/>
<path d="M161.782 9.70657C161.782 7.03376 163.216 6.03745 165.393 6.03745C167.571 6.03745 169.013 7.03376 169.013 9.70657C169.013 12.389 167.571 13.3853 165.393 13.3853C163.225 13.3853 161.782 12.389 161.782 9.70657ZM167.488 9.73531C167.488 8.34622 166.964 7.47444 165.393 7.47444C163.822 7.47444 163.298 8.33663 163.298 9.73531C163.298 11.134 163.822 12.0058 165.393 12.0058C166.964 12.0058 167.488 11.1244 167.488 9.73531Z" fill="black"/>
<path d="M67.7117 17.6771H70.1647C72.8567 17.6771 73.9683 18.4052 73.9683 21.2313C73.9683 24.0094 72.8199 24.795 70.128 24.795H67.7117V17.6771ZM70.2107 23.4251C72.0757 23.4251 72.4524 22.8407 72.4524 21.2313C72.4524 19.6218 72.14 19.0853 70.1831 19.0853H69.2276V23.4155H70.2107V23.4251Z" fill="black"/>
<path d="M74.4001 21.2312C74.4001 18.5584 75.8426 17.5621 78.0108 17.5621C80.1883 17.5621 81.6307 18.5584 81.6307 21.2312C81.6307 23.9136 80.1883 24.91 78.0108 24.91C75.8426 24.9195 74.4001 23.9136 74.4001 21.2312ZM80.1056 21.26C80.1056 19.8709 79.5819 18.9991 78.0108 18.9991C76.4398 18.9991 75.9161 19.8613 75.9161 21.26C75.9161 22.6587 76.4398 23.5304 78.0108 23.5304C79.5819 23.5304 80.1056 22.6587 80.1056 21.26Z" fill="black"/>
<path d="M84.2493 17.6771H89.3759V19.1045H85.756V20.484H89.284V21.8635H85.756V23.4347H89.4126V24.8046H84.2493V17.6771Z" fill="black"/>
<path d="M89.9822 23.9711L90.7356 22.8407C91.4614 23.3484 92.3066 23.5975 93.1886 23.5975C94.5208 23.5975 94.778 23.3293 94.778 22.7353C94.778 22.1509 94.2084 22.036 93.1519 21.8827C91.3236 21.6144 90.3773 21.2696 90.3773 19.7176C90.3773 18.1273 91.296 17.5621 93.2254 17.5621C94.6127 17.5621 95.4671 17.8974 95.9908 18.2615L95.1823 19.4781C94.7505 19.1811 93.9512 18.9321 93.207 18.9321C92.1412 18.9321 91.884 19.1524 91.884 19.6697C91.884 20.2445 92.4444 20.3499 93.5378 20.5127C95.1823 20.7618 96.2756 21.0396 96.2756 22.6491C96.2756 24.0861 95.5222 24.9004 93.2438 24.9004C91.884 24.91 90.7631 24.5747 89.9822 23.9711Z" fill="black"/>
<path d="M98.8114 19.1045H96.4502V17.6771H102.698V19.1045H100.337V24.8046H98.8114V19.1045Z" fill="black"/>
<path d="M104.379 17.6292H105.904L108.66 24.795H107.089L106.648 23.6263H103.552L103.111 24.795H101.632L104.379 17.6292ZM106.18 22.333L105.114 19.4973L104.048 22.333H106.18Z" fill="black"/>
<path d="M109.294 17.6771H111.747C114.439 17.6771 115.551 18.4052 115.551 21.2313C115.551 24.0094 114.402 24.795 111.711 24.795H109.294V17.6771ZM111.793 23.4251C113.658 23.4251 114.035 22.8407 114.035 21.2313C114.035 19.6218 113.723 19.0853 111.766 19.0853H110.81V23.4155H111.793V23.4251Z" fill="black"/>
<path d="M115.983 21.2312C115.983 18.5584 117.425 17.5621 119.594 17.5621C121.762 17.5621 123.213 18.5584 123.213 21.2312C123.213 23.9136 121.762 24.91 119.594 24.91C117.425 24.91 115.983 23.9136 115.983 21.2312ZM121.688 21.26C121.688 19.8709 121.165 18.9991 119.594 18.9991C118.023 18.9991 117.499 19.8613 117.499 21.26C117.499 22.6587 118.023 23.5304 119.594 23.5304C121.165 23.5304 121.688 22.6587 121.688 21.26Z" fill="black"/>
<path d="M125.823 17.6771H128.276C130.968 17.6771 132.079 18.4052 132.079 21.2313C132.079 24.0094 130.931 24.795 128.239 24.795H125.823V17.6771ZM128.322 23.4251C130.187 23.4251 130.563 22.8407 130.563 21.2313C130.563 19.6218 130.251 19.0853 128.294 19.0853H127.338V23.4155H128.322V23.4251Z" fill="black"/>
<path d="M134.624 17.6292H136.159L138.915 24.795H137.344L136.903 23.6263H133.807L133.366 24.795H131.886L134.624 17.6292ZM136.425 22.333L135.359 19.4973L134.294 22.333H136.425Z" fill="black"/>
<path d="M141.331 17.6771H144.501C146.32 17.6771 147.092 18.204 147.092 19.5164C147.092 20.3403 146.807 20.8576 146.182 21.0971C146.981 21.2983 147.275 21.8348 147.275 22.8503C147.275 24.3926 146.32 24.8142 144.482 24.8142H141.331V17.6771ZM144.565 20.5223C145.364 20.5223 145.566 20.2445 145.566 19.7464C145.566 19.2482 145.328 19.0183 144.565 19.0183H142.819V20.5223H144.565ZM144.666 23.4921C145.438 23.4921 145.75 23.2718 145.75 22.6874C145.75 22.103 145.447 21.8923 144.666 21.8923H142.819V23.5017H144.666V23.4921Z" fill="black"/>
<path d="M150.013 17.6292H151.548L154.304 24.795H152.733L152.292 23.6263H149.196L148.755 24.795H147.285L150.013 17.6292ZM151.814 22.333L150.748 19.4973L149.683 22.333H151.814Z" fill="black"/>
<path d="M154.929 17.6771H156.435V20.4074H159.568V17.6771H161.075V24.8046H159.568V21.8827H156.435V24.8046H154.929V17.6771Z" fill="black"/>
<path d="M162.168 17.6771H163.675V24.8046H162.168V17.6771Z" fill="black"/>
<path d="M167.139 17.6292H168.664L171.42 24.795H169.849L169.408 23.6263H166.312L165.871 24.795H164.392L167.139 17.6292ZM168.939 22.333L167.874 19.4973L166.808 22.333H168.939Z" fill="black"/>
</svg>
