<svg width="56" height="56" viewBox="0 0 56 56" fill="none" xmlns="http://www.w3.org/2000/svg">
<path d="M26.5267 7.88281L31.0013 13.3109C32.5915 15.24 33.3503 17.7219 33.1107 20.2104C32.871 22.699 31.6527 24.9904 29.7235 26.5806L28.0001 28.0013L23.5256 22.5732C21.9353 20.6441 21.1766 18.1622 21.4162 15.6737C21.6558 13.1851 22.8742 10.8937 24.8033 9.30348L26.5267 7.88281Z" fill="#DDACE6"/>
<path d="M28.0002 28L32.4748 33.4281C33.2622 34.3833 33.8538 35.4843 34.2157 36.6681C34.5776 37.8519 34.7028 39.0954 34.5842 40.3276C34.4655 41.5598 34.1053 42.7566 33.5242 43.8496C32.943 44.9426 32.1523 45.9104 31.1971 46.6978L29.4736 48.1185L24.9991 42.6904C23.4088 40.7612 22.6501 38.2794 22.8897 35.7909C23.1293 33.3023 24.3477 31.0109 26.2768 29.4207L28.0002 28Z" fill="#DDACE6"/>
<path d="M48.1182 26.5273L42.69 31.0019C41.7348 31.7893 40.6339 32.3809 39.4501 32.7428C38.2663 33.1047 37.0228 33.2299 35.7906 33.1113C34.5584 32.9926 33.3616 32.6324 32.2686 32.0513C31.1756 31.4701 30.2078 30.6794 29.4204 29.7242L27.9997 28.0007L33.4278 23.5262C35.3569 21.9359 37.8387 21.1772 40.3273 21.4168C42.8158 21.6564 45.1073 22.8748 46.6975 24.8039L48.1182 26.5273Z" fill="#DDACE6"/>
<path d="M28.0002 28L22.5721 32.4746C21.6169 33.262 20.516 33.8535 19.3322 34.2155C18.1484 34.5774 16.9048 34.7026 15.6726 34.5839C14.4404 34.4653 13.2437 34.1051 12.1507 33.5239C11.0577 32.9428 10.0898 32.152 9.30243 31.1968L7.88176 29.4734L13.3099 24.9988C15.239 23.4086 17.7208 22.6498 20.2094 22.8895C22.6979 23.1291 24.9893 24.3475 26.5796 26.2766L28.0002 28Z" fill="#DDACE6"/>
<path d="M27.9996 27.9997L20.8972 27.3158C19.6669 27.1971 18.4253 27.322 17.2433 27.6832C16.0612 28.0445 14.962 28.6351 14.0082 29.4213C13.0545 30.2075 12.265 31.1738 11.6848 32.2652C11.1047 33.3566 10.7452 34.5516 10.6269 35.7819L10.4189 37.9431L17.5213 38.627C18.7516 38.7457 19.9932 38.6208 21.1752 38.2596C22.3573 37.8983 23.4565 37.3077 24.4103 36.5215C25.364 35.7353 26.1535 34.769 26.7337 33.6776C27.3138 32.5862 27.6733 31.3912 27.7915 30.1609L27.9996 27.9997Z" fill="#A877B1"/>
<path d="M45.5817 18.0563L38.4793 17.3725C37.249 17.2538 36.0073 17.3786 34.8253 17.7399C33.6433 18.1011 32.544 18.6917 31.5903 19.4779C30.6365 20.2641 29.847 21.2305 29.2669 22.3219C28.6867 23.4133 28.3272 24.6082 28.209 25.8386L28.0009 27.9998L35.1034 28.6837C36.3337 28.8024 37.5753 28.6775 38.7573 28.3162C39.9393 27.955 41.0386 27.3644 41.9923 26.5782C42.946 25.792 43.7355 24.8256 44.3157 23.7343C44.8959 22.6429 45.2554 21.4479 45.3736 20.2176L45.5817 18.0563Z" fill="#A877B1"/>
<path d="M22.5717 32.4747L27.9998 28.0002L29.4205 29.7236C30.2079 30.6788 30.7994 31.7797 31.1614 32.9635C31.5233 34.1473 31.6485 35.3909 31.5299 36.6231C31.4112 37.8553 31.051 39.052 30.4698 40.145C29.8887 41.238 29.0979 42.2059 28.1427 42.9933L22.7146 47.4678L21.2939 45.7444C19.7037 43.8153 18.9449 41.3335 19.1846 38.845C19.4242 36.3564 20.6426 34.065 22.5717 32.4747Z" fill="#69307A"/>
<path d="M27.8582 13.0079L33.2863 8.53337L34.707 10.2568C35.4944 11.212 36.0859 12.3129 36.4479 13.4967C36.8098 14.6805 36.935 15.9241 36.8164 17.1563C36.6977 18.3885 36.3375 19.5852 35.7563 20.6782C35.1752 21.7712 34.3844 22.7391 33.4292 23.5265L28.0011 28.001L26.5804 26.2776C24.9902 24.3485 24.2314 21.8667 24.4711 19.3782C24.7107 16.8896 25.9291 14.5982 27.8582 13.0079Z" fill="#69307A"/>
<path d="M28.0002 27.9998L27.326 35.002C27.0864 37.4905 27.8452 39.9724 29.4354 41.9015C31.0257 43.8306 33.3171 45.049 35.8057 45.2887L38.0059 45.5292L38.703 38.5006C38.9426 36.012 38.1838 33.5302 36.5936 31.601C35.0034 29.6719 32.7119 28.4535 30.2234 28.2139L28.0002 27.9998Z" fill="#A877B1"/>
<path d="M17.9949 10.4701L17.2978 17.4987C17.0582 19.9873 17.8169 22.4691 19.4072 24.3982C20.9974 26.3274 23.2889 27.5458 25.7774 27.7854L28.0005 27.9995L28.6748 20.9973C28.9144 18.5087 28.1556 16.0269 26.5654 14.0978C24.9751 12.1687 22.6837 10.9503 20.1951 10.7106L17.9949 10.4701Z" fill="#A877B1"/>
<path d="M32.4749 33.4294L28.0003 28.0013L29.7237 26.5806C31.6528 24.9904 34.1346 24.2316 36.6232 24.4712C39.1117 24.7109 41.4032 25.9293 42.9934 27.8584L47.468 33.2865L45.7446 34.7072C43.8154 36.2974 41.3336 37.0561 38.8451 36.8165C36.3565 36.5769 34.0651 35.3585 32.4749 33.4294Z" fill="#69307A"/>
<path d="M13.0071 28.1442L8.53251 22.7161L10.2559 21.2955C11.2111 20.508 12.3121 19.9165 13.4959 19.5546C14.6797 19.1926 15.9232 19.0674 17.1554 19.1861C18.3876 19.3047 19.5844 19.6649 20.6774 20.2461C21.7704 20.8273 22.7382 21.618 23.5256 22.5732L28.0002 28.0013L26.2768 29.422C24.3477 31.0122 21.8659 31.771 19.3773 31.5314C16.8887 31.2917 14.5973 30.0734 13.0071 28.1442Z" fill="#69307A"/>
<path d="M31.0541 31.7051C33.1001 30.0185 33.3915 26.9926 31.7049 24.9465C30.0183 22.9004 26.9923 22.6091 24.9463 24.2957C22.9002 25.9823 22.6089 29.0083 24.2955 31.0543C25.9821 33.1004 29.008 33.3917 31.0541 31.7051Z" fill="#FFDA44"/>
</svg>
